<?xml version="1.0" standalone="no"?>
<!DOCTYPE svg PUBLIC "-//W3C//DTD SVG 20010904//EN"
 "http://www.w3.org/TR/2001/REC-SVG-20010904/DTD/svg10.dtd">
<svg version="1.0" xmlns="http://www.w3.org/2000/svg"
 width="1024.000000pt" height="1024.000000pt" viewBox="0 0 1024.000000 1024.000000"
 preserveAspectRatio="xMidYMid meet">
<metadata>
Created by potrace 1.14, written by Peter Selinger 2001-2017
</metadata>
<g transform="translate(0.000000,1024.000000) scale(0.100000,-0.100000)"
fill="#000000" stroke="none">
<path d="M626 9981 c-10 -16 6 -42 23 -39 9 2 17 13 19 26 3 16 -2 22 -17 22
-11 0 -22 -4 -25 -9z m25 -10 c7 11 9 10 9 -4 0 -20 -22 -19 -26 1 -2 9 -1 9
3 1 4 -8 8 -7 14 2z"/>
<path d="M2533 9974 c-8 -21 13 -42 28 -27 13 13 5 43 -11 43 -6 0 -13 -7 -17
-16z"/>
<path d="M3463 9974 c-8 -21 13 -42 28 -27 13 13 5 43 -11 43 -6 0 -13 -7 -17
-16z"/>
<path d="M4577 9983 c-4 -3 -7 -15 -7 -25 0 -21 36 -25 43 -5 9 27 -17 50 -36
30z"/>
<path d="M4952 9977 c-15 -17 1 -42 23 -33 18 6 17 37 -1 43 -6 2 -16 -2 -22
-10z m28 -12 c0 -8 -4 -15 -9 -15 -13 0 -22 16 -14 24 11 11 23 6 23 -9z"/>
<path d="M5433 9974 c-7 -18 11 -39 26 -30 17 11 13 46 -4 46 -9 0 -18 -7 -22
-16z m24 -9 c0 -8 -4 -15 -9 -15 -4 0 -8 7 -8 15 0 8 4 15 8 15 5 0 9 -7 9
-15z"/>
<path d="M6369 9979 c-12 -7 -11 -11 3 -25 17 -17 38 -12 38 11 0 17 -23 25
-41 14z"/>
<path d="M7433 9974 c-3 -8 -1 -20 5 -26 16 -16 42 -2 42 22 0 24 -38 28 -47
4z m32 -16 c6 -4 2 -8 -7 -8 -10 0 -18 7 -18 17 0 9 3 12 8 7 4 -5 12 -12 17
-16z"/>
<path d="M8655 9981 c-9 -16 3 -31 26 -31 14 0 19 6 17 17 -4 20 -33 29 -43
14z"/>
<path d="M9444 9975 c-4 -9 -2 -21 4 -27 15 -15 44 -1 40 19 -4 23 -36 29 -44
8z"/>
<path d="M10015 9982 c-10 -11 -5 -18 15 -19 11 -1 20 3 20 9 0 6 3 8 6 5 4
-4 1 -14 -7 -23 -12 -15 -12 -17 1 -12 24 8 19 43 -7 44 -12 1 -25 -1 -28 -4z"/>
<path d="M311 9690 c-17 -10 -7 -40 13 -40 7 0 16 6 19 14 8 19 -15 37 -32 26z
m16 -15 c0 -8 -4 -15 -9 -15 -10 0 -11 14 -1 23 9 10 10 9 10 -8z"/>
<path d="M601 9690 c-17 -10 -7 -40 14 -40 8 0 15 9 15 19 0 24 -12 32 -29 21z"/>
<path d="M891 9691 c-17 -11 -7 -41 13 -41 22 0 30 20 15 36 -9 8 -19 10 -28
5z"/>
<path d="M1183 9693 c-22 -8 -15 -43 7 -43 13 0 20 7 20 19 0 22 -9 30 -27 24z"/>
<path d="M1423 9693 c-22 -8 -15 -43 7 -43 13 0 20 7 20 19 0 22 -9 30 -27 24z"/>
<path d="M1631 9690 c-17 -10 -7 -40 14 -40 8 0 15 9 15 19 0 24 -12 32 -29
21z"/>
<path d="M1843 9684 c-3 -8 1 -22 9 -30 13 -13 16 -13 27 0 7 9 11 23 7 31 -7
20 -35 19 -43 -1z m34 0 c-3 -3 -12 -4 -19 -1 -8 3 -5 6 6 6 11 1 17 -2 13 -5z"/>
<path d="M2064 9691 c5 -7 1 -9 -8 -5 -18 7 -20 -4 -7 -25 12 -18 43 -6 39 16
-2 9 -9 18 -17 21 -8 3 -11 0 -7 -7z"/>
<path d="M2531 9690 c-17 -10 -7 -40 14 -40 8 0 15 9 15 19 0 24 -12 32 -29
21z"/>
<path d="M3246 9691 c-9 -14 5 -42 18 -38 15 5 14 39 -1 44 -6 2 -14 0 -17 -6z"/>
<path d="M3524 9685 c-8 -21 10 -39 30 -32 22 9 20 24 -4 37 -16 9 -22 8 -26
-5z"/>
<path d="M3857 9693 c-15 -14 -7 -43 12 -43 23 0 34 23 18 39 -13 13 -21 14
-30 4z"/>
<path d="M4140 9685 c-10 -11 -10 -19 -2 -27 15 -15 44 -2 40 19 -4 23 -22 27
-38 8z"/>
<path d="M4374 9685 c-7 -18 3 -35 22 -35 8 0 14 10 14 25 0 27 -27 35 -36 10z"/>
<path d="M4581 9691 c-17 -11 -7 -41 13 -41 22 0 30 20 15 36 -9 8 -19 10 -28
5z"/>
<path d="M4814 9685 c-4 -9 -2 -21 4 -27 15 -15 44 -1 40 19 -4 23 -36 29 -44
8z m28 -2 c-6 -2 -10 -9 -6 -14 3 -5 0 -9 -5 -9 -12 0 -14 13 -4 23 3 4 11 7
17 6 6 0 5 -3 -2 -6z"/>
<path d="M5653 9684 c-8 -21 13 -42 28 -27 13 13 5 43 -11 43 -6 0 -13 -7 -17
-16z"/>
<path d="M6013 9693 c-18 -7 -16 -43 2 -43 18 0 31 28 19 39 -5 5 -15 6 -21 4z"/>
<path d="M6257 9694 c-16 -16 -7 -44 14 -44 15 0 20 5 17 22 -3 22 -19 33 -31
22z"/>
<path d="M6991 9691 c-16 -11 -2 -43 18 -39 9 2 17 10 19 19 3 19 -19 31 -37
20z m29 -23 c0 -4 -4 -8 -9 -8 -6 0 -12 4 -15 8 -3 5 1 9 9 9 8 0 15 -4 15 -9z"/>
<path d="M7241 9690 c-17 -10 -7 -40 14 -40 8 0 15 9 15 19 0 24 -12 32 -29
21z"/>
<path d="M7454 9685 c-7 -18 3 -35 21 -35 21 0 28 19 15 35 -16 19 -29 19 -36
0z"/>
<path d="M8021 9690 c-17 -10 -7 -40 13 -40 7 0 16 6 19 14 8 19 -15 37 -32
26z m16 -15 c0 -8 -4 -12 -9 -9 -5 3 -6 10 -3 15 9 13 12 11 12 -6z"/>
<path d="M8271 9691 c-16 -11 -2 -43 18 -39 9 2 17 10 19 19 3 19 -19 31 -37
20z"/>
<path d="M8660 9690 c-18 -11 -4 -42 17 -38 10 2 19 10 21 19 4 19 -19 31 -38
19z"/>
<path d="M8937 9694 c-16 -16 -7 -44 14 -44 15 0 20 5 17 22 -3 22 -19 33 -31
22z"/>
<path d="M9194 9686 c-7 -19 3 -36 22 -36 10 0 14 8 12 22 -4 26 -26 36 -34
14z"/>
<path d="M10037 9687 c-11 -8 -14 -17 -8 -26 11 -17 41 -7 41 13 0 21 -15 27
-33 13z"/>
<path d="M2760 9670 c0 -13 7 -20 20 -20 13 0 20 7 20 20 0 13 -7 20 -20 20
-13 0 -20 -7 -20 -20z"/>
<path d="M5812 9668 c2 -13 10 -23 18 -23 8 0 16 10 18 23 3 17 -2 22 -18 22
-16 0 -21 -5 -18 -22z"/>
<path d="M9756 9682 c-9 -14 12 -35 28 -29 23 9 20 37 -3 37 -11 0 -22 -4 -25
-8z"/>
<path d="M3367 9583 c-11 -10 -8 -41 4 -49 14 -8 43 21 35 35 -4 5 -14 7 -23
4 -11 -4 -14 -3 -9 5 8 13 3 16 -7 5z m27 -35 c-3 -4 -9 -8 -15 -8 -5 0 -9 4
-9 8 0 5 7 9 15 9 8 0 12 -4 9 -9z"/>
<path d="M5182 9568 c-13 -13 -4 -38 14 -38 15 0 19 35 6 44 -5 3 -14 0 -20
-6z"/>
<path d="M5364 9555 c-4 -9 -2 -21 4 -27 15 -15 44 -1 40 19 -4 23 -36 29 -44
8z m20 -10 c3 -8 1 -15 -4 -15 -6 0 -10 7 -10 15 0 8 2 15 4 15 2 0 6 -7 10
-15z"/>
<path d="M7844 9555 c-7 -18 3 -35 21 -35 10 0 14 9 13 25 -3 27 -25 34 -34
10z"/>
<path d="M9374 9416 c-4 -10 -1 -24 9 -33 14 -14 16 -13 26 5 7 14 8 23 1 27
-5 3 -10 3 -10 -2 0 -4 -4 -1 -10 7 -8 12 -10 12 -16 -4z m26 -26 c0 -5 -2
-10 -4 -10 -3 0 -8 5 -11 10 -3 6 -1 10 4 10 6 0 11 -4 11 -10z"/>
<path d="M1581 9406 c-14 -17 -7 -36 14 -36 22 0 29 20 13 36 -13 13 -16 13
-27 0z"/>
<path d="M1820 9400 c0 -15 5 -20 18 -18 9 2 17 10 17 18 0 8 -8 16 -17 18
-13 2 -18 -3 -18 -18z"/>
<path d="M2269 9418 c-8 -35 -6 -47 6 -52 17 -6 25 4 21 29 -2 16 -24 35 -27
23z"/>
<path d="M2526 9404 c-4 -10 -2 -22 3 -27 14 -14 40 -1 37 20 -4 24 -32 29
-40 7z"/>
<path d="M3292 9408 c-15 -15 3 -49 23 -42 19 8 19 28 2 43 -10 8 -17 7 -25
-1z"/>
<path d="M3846 9404 c-8 -21 11 -45 30 -37 20 7 14 47 -7 51 -9 2 -19 -5 -23
-14z"/>
<path d="M4565 9408 c-9 -23 2 -38 26 -38 20 0 27 34 9 45 -5 3 -10 0 -10 -7
0 -10 -3 -9 -10 2 -8 12 -10 12 -15 -2z m32 -24 c-3 -3 -12 -4 -19 -1 -8 3 -5
6 6 6 11 1 17 -2 13 -5z"/>
<path d="M4803 9404 c-7 -19 20 -49 36 -40 16 11 13 43 -5 50 -22 8 -24 8 -31
-10z m32 -4 c3 -6 -1 -7 -9 -4 -18 7 -21 14 -7 14 6 0 13 -4 16 -10z m0 -28
c-3 -3 -11 0 -18 7 -9 10 -8 11 6 5 10 -3 15 -9 12 -12z"/>
<path d="M5667 9413 c-4 -3 -7 -16 -6 -27 0 -21 1 -21 9 -1 6 14 9 16 10 5 2
-8 2 -19 1 -23 -1 -5 3 -5 9 -2 6 4 9 13 6 21 -3 8 0 14 7 14 8 0 6 4 -3 10
-18 12 -24 12 -33 3z"/>
<path d="M6022 9398 c2 -12 10 -23 18 -23 22 0 19 39 -3 43 -15 3 -18 -1 -15
-20z m19 -11 c-10 -9 -11 -8 -5 6 3 10 9 15 12 12 3 -3 0 -11 -7 -18z"/>
<path d="M8393 9413 c-16 -6 -17 -25 -2 -40 16 -16 39 -5 39 18 0 13 -5 17
-17 12 -11 -4 -14 -3 -9 5 8 13 7 13 -11 5z"/>
<path d="M873 9394 c-3 -8 -1 -20 5 -26 15 -15 43 8 35 28 -7 19 -32 18 -40
-2z"/>
<path d="M1167 9396 c-8 -20 20 -43 35 -28 14 14 3 42 -16 42 -7 0 -16 -6 -19
-14z"/>
<path d="M2760 9391 c0 -19 23 -35 34 -24 14 15 5 43 -14 43 -13 0 -20 -7 -20
-19z"/>
<path d="M3540 9390 c0 -13 7 -20 20 -20 13 0 20 7 20 20 0 13 -7 20 -20 20
-13 0 -20 -7 -20 -20z"/>
<path d="M4158 9398 c-7 -19 2 -38 17 -38 15 0 24 19 18 38 -3 6 -11 12 -18
12 -7 0 -15 -6 -17 -12z"/>
<path d="M4363 9394 c-8 -22 18 -37 36 -20 7 8 10 19 7 25 -10 16 -36 13 -43
-5z"/>
<path d="M5173 9394 c-8 -21 13 -42 28 -27 13 13 5 43 -11 43 -6 0 -13 -7 -17
-16z"/>
<path d="M6624 9395 c-7 -18 3 -35 21 -35 18 0 26 15 19 34 -8 20 -33 21 -40
1z"/>
<path d="M7040 9390 c0 -13 7 -20 20 -20 13 0 20 7 20 20 0 13 -7 20 -20 20
-13 0 -20 -7 -20 -20z"/>
<path d="M7300 9390 c0 -16 5 -21 23 -18 12 2 22 10 22 18 0 8 -10 16 -22 18
-18 3 -23 -2 -23 -18z"/>
<path d="M7524 9399 c-3 -6 1 -18 10 -27 15 -15 18 -15 26 -2 5 8 10 21 10 28
0 15 -36 16 -46 1z"/>
<path d="M8654 9399 c-10 -17 23 -46 37 -32 7 7 9 19 6 27 -7 18 -33 21 -43 5z"/>
<path d="M9193 9394 c-3 -8 0 -21 7 -27 10 -9 11 -9 5 3 -7 13 -6 13 7 2 13
-10 17 -10 20 0 7 19 -2 38 -18 38 -8 0 -17 -7 -21 -16z"/>
<path d="M8141 9376 c-9 -11 -10 -20 -1 -36 15 -28 34 -20 37 16 2 21 0 25 -7
14 -9 -14 -14 -7 -11 13 2 11 -5 8 -18 -7z m24 -36 c3 -5 1 -10 -4 -10 -6 0
-11 5 -11 10 0 6 2 10 4 10 3 0 8 -4 11 -10z"/>
<path d="M6194 9366 c-7 -19 3 -36 22 -36 10 0 14 8 12 22 -4 26 -26 36 -34
14z"/>
<path d="M1862 9338 c2 -12 10 -23 18 -23 22 0 19 39 -3 43 -15 3 -18 -1 -15
-20z"/>
<path d="M1434 9236 c-9 -24 3 -47 21 -40 19 8 19 28 0 44 -12 10 -16 9 -21
-4z"/>
<path d="M1707 9244 c-4 -4 -7 -16 -7 -26 0 -14 6 -19 23 -16 14 2 22 10 22
23 0 20 -25 32 -38 19z"/>
<path d="M4480 9235 c-15 -18 -6 -45 15 -45 9 0 15 9 15 24 0 31 -14 40 -30
21z m17 -20 c0 -8 -4 -12 -9 -9 -5 3 -6 10 -3 15 9 13 12 11 12 -6z"/>
<path d="M6021 9237 c-13 -17 10 -54 27 -43 16 10 15 31 -2 45 -10 8 -16 8
-25 -2z m26 -23 c-9 -9 -28 6 -21 18 4 6 10 6 17 -1 6 -6 8 -13 4 -17z"/>
<path d="M8943 9243 c-17 -6 -17 -28 0 -41 17 -14 40 1 35 23 -3 20 -16 26
-35 18z m20 -10 c-7 -2 -13 -9 -13 -14 0 -6 5 -7 12 -3 7 5 8 3 3 -5 -5 -9
-11 -9 -17 -3 -12 12 -2 32 15 31 9 0 9 -2 0 -6z"/>
<path d="M9347 9244 c-12 -13 -7 -24 11 -25 14 0 14 -2 -3 -9 -19 -8 -19 -9 3
-9 18 -1 23 4 20 21 -3 22 -19 33 -31 22z"/>
<path d="M2344 9225 c-7 -18 3 -35 22 -35 8 0 14 10 14 25 0 27 -27 35 -36 10z"/>
<path d="M4160 9215 c0 -20 4 -26 18 -23 9 2 17 12 17 23 0 11 -8 21 -17 23
-14 3 -18 -3 -18 -23z"/>
<path d="M5030 9221 c0 -28 21 -37 36 -16 16 22 10 35 -17 35 -12 0 -19 -7
-19 -19z"/>
<path d="M5750 9226 c0 -25 12 -46 25 -46 16 0 23 19 17 43 -5 20 -42 23 -42
3z"/>
<path d="M6734 9225 c-4 -9 -2 -21 4 -27 15 -15 44 -1 40 19 -4 23 -36 29 -44
8z m28 -4 c8 12 9 12 6 0 -6 -22 -28 -25 -27 -4 0 12 2 14 6 4 5 -11 7 -11 15
0z"/>
<path d="M7134 9225 c-7 -18 3 -35 21 -35 15 0 28 27 19 41 -8 14 -34 11 -40
-6z"/>
<path d="M9540 9219 c0 -12 7 -19 20 -19 13 0 20 7 20 18 0 11 -8 18 -20 19
-14 1 -20 -4 -20 -18z"/>
<path d="M747 9134 c-15 -15 -7 -45 11 -42 9 2 17 12 17 22 0 20 -16 31 -28
20z"/>
<path d="M2886 9114 c-7 -19 1 -34 19 -34 21 0 28 19 15 35 -16 19 -26 19 -34
-1z m21 -9 c0 -8 -4 -12 -9 -9 -5 3 -6 10 -3 15 9 13 12 11 12 -6z"/>
<path d="M3114 9115 c-8 -20 3 -48 17 -43 6 2 10 7 9 12 -1 5 4 13 12 17 9 6
6 9 -10 9 -13 0 -20 4 -17 10 3 6 4 10 0 10 -3 0 -8 -7 -11 -15z m21 -25 c3
-5 1 -10 -4 -10 -6 0 -11 5 -11 10 0 6 2 10 4 10 3 0 8 -4 11 -10z"/>
<path d="M3373 9119 c-16 -16 -5 -39 19 -39 14 0 19 6 16 22 -4 25 -19 33 -35
17z m14 -14 c0 -8 -4 -12 -9 -9 -5 3 -6 10 -3 15 9 13 12 11 12 -6z"/>
<path d="M3773 9119 c-15 -15 -5 -39 17 -39 22 0 32 24 17 39 -6 6 -14 11 -17
11 -3 0 -11 -5 -17 -11z"/>
<path d="M4005 9122 c-3 -3 -5 -14 -5 -24 0 -22 35 -25 44 -3 3 8 1 15 -5 15
-6 0 -8 4 -5 8 5 9 -21 12 -29 4z m19 -17 c3 -8 1 -15 -4 -15 -6 0 -10 7 -10
15 0 8 2 15 4 15 2 0 6 -7 10 -15z"/>
<path d="M4841 9111 c-7 -13 -8 -22 -1 -26 5 -3 10 0 10 7 0 11 2 10 9 0 7
-11 9 -11 14 1 3 9 0 21 -8 27 -11 9 -16 7 -24 -9z"/>
<path d="M6541 9112 c-11 -20 -6 -32 15 -32 18 0 25 27 9 40 -11 9 -16 7 -24
-8z"/>
<path d="M6954 9115 c-7 -18 3 -35 21 -35 15 0 24 19 18 38 -6 17 -32 15 -39
-3z"/>
<path d="M7894 9115 c-8 -19 0 -28 26 -32 26 -4 26 23 0 37 -16 9 -22 8 -26
-5z"/>
<path d="M8391 9121 c-10 -7 -11 -13 -1 -30 14 -28 35 -22 35 9 0 26 -13 34
-34 21z m21 -8 c-10 -4 -10 -8 -1 -19 7 -8 7 -14 1 -14 -12 0 -23 26 -15 34 4
3 11 6 17 5 6 0 5 -3 -2 -6z"/>
<path d="M300 9102 c0 -25 22 -43 39 -33 20 13 9 46 -17 49 -16 3 -22 -2 -22
-16z m40 -16 c0 -11 -19 -15 -25 -6 -3 5 1 10 9 10 9 0 16 -2 16 -4z"/>
<path d="M574 9105 c-7 -18 3 -35 21 -35 15 0 28 27 19 41 -8 14 -34 11 -40
-6z"/>
<path d="M1071 9106 c-15 -18 -3 -48 18 -44 21 4 27 44 7 51 -8 3 -19 0 -25
-7z"/>
<path d="M1911 9107 c-12 -15 -5 -47 11 -47 5 0 6 4 3 10 -4 6 1 7 10 3 13 -4
16 -1 13 17 -4 28 -21 36 -37 17z m29 -5 c0 -5 -7 -9 -15 -9 -8 0 -12 4 -9 9
3 4 9 8 15 8 5 0 9 -4 9 -8z"/>
<path d="M2113 9113 c-22 -8 -14 -33 10 -34 21 -1 21 -1 -3 -9 l-25 -8 28 -1
c20 -1 27 4 27 18 0 22 -20 40 -37 34z"/>
<path d="M2653 9104 c-8 -21 13 -42 28 -27 13 13 5 43 -11 43 -6 0 -13 -7 -17
-16z m24 -9 c0 -8 -4 -15 -9 -15 -4 0 -8 7 -8 15 0 8 4 15 8 15 5 0 9 -7 9
-15z"/>
<path d="M5170 9106 c0 -8 4 -18 10 -21 6 -4 7 1 4 12 -5 16 -4 16 10 -1 9
-11 16 -14 16 -8 0 7 1 15 3 19 1 3 -8 8 -20 9 -15 3 -23 -1 -23 -10z"/>
<path d="M5463 9102 c0 -12 7 -19 17 -17 20 3 19 29 -2 33 -11 2 -16 -3 -15
-16z"/>
<path d="M6350 9100 c0 -11 5 -20 11 -20 5 0 8 4 4 9 -3 5 0 13 6 17 7 4 9 3
5 -4 -3 -6 -2 -13 4 -17 5 -3 10 3 10 14 0 14 -6 21 -20 21 -13 0 -20 -7 -20
-20z"/>
<path d="M7445 9110 c-9 -15 4 -30 26 -30 12 0 19 7 19 20 0 21 -33 29 -45 10z"/>
<path d="M8660 9101 c0 -27 19 -36 37 -18 18 18 9 37 -18 37 -12 0 -19 -7 -19
-19z m32 -5 c7 4 8 2 4 -4 -11 -18 -26 -14 -25 6 0 10 3 12 6 4 2 -6 10 -9 15
-6z"/>
<path d="M10024 9109 c-10 -17 23 -46 37 -32 7 7 9 19 6 27 -7 18 -33 21 -43
5z"/>
<path d="M1580 9090 c0 -24 29 -38 40 -20 12 19 1 40 -21 40 -12 0 -19 -7 -19
-20z"/>
<path d="M9194 9095 c-7 -18 3 -35 21 -35 15 0 24 19 18 38 -6 17 -32 15 -39
-3z"/>
<path d="M9477 9104 c-12 -13 -7 -24 11 -24 14 0 15 -2 2 -10 -13 -8 -12 -10
3 -10 13 0 17 6 15 22 -3 22 -19 33 -31 22z"/>
<path d="M9710 9091 c0 -11 4 -22 8 -25 14 -9 35 12 29 28 -9 23 -37 20 -37
-3z"/>
<path d="M830 9040 c-10 -6 -11 -10 -2 -10 6 0 11 -6 10 -12 -2 -7 4 -13 12
-13 17 0 21 36 5 42 -5 1 -17 -2 -25 -7z"/>
<path d="M3383 8942 l-771 -2 -94 -128 c-52 -70 -114 -158 -139 -197 -170
-262 -213 -325 -220 -325 -5 0 -8 -4 -7 -8 4 -13 -54 -82 -63 -76 -5 3 -6 -3
-2 -12 5 -13 3 -15 -7 -9 -8 5 -11 4 -7 -2 7 -11 -27 -65 -36 -58 -4 3 -5 2
-3 -1 4 -5 -70 -118 -160 -244 -26 -36 -65 -92 -88 -125 -23 -33 -44 -62 -49
-63 -4 -2 -5 -8 -1 -13 3 -5 1 -9 -4 -9 -6 0 -25 -24 -43 -52 -19 -29 -47 -67
-62 -85 -16 -18 -28 -34 -28 -37 1 -4 1 -9 1 -13 -1 -5 0 -110 0 -235 1 -175
-2 -227 -12 -231 -9 -4 -9 -6 -1 -6 17 -1 19 -1387 2 -1407 -9 -11 -8 -14 1
-14 9 0 11 -61 9 -270 -2 -149 -1 -270 4 -270 4 0 7 -6 7 -12 0 -7 9 -31 19
-53 10 -22 18 -44 19 -48 0 -5 9 -15 19 -24 10 -8 12 -12 6 -8 -9 4 -11 1 -7
-9 3 -9 10 -13 15 -10 5 3 9 -2 9 -11 0 -9 4 -13 10 -10 9 6 14 -8 11 -28 -1
-5 2 -6 7 -3 4 2 29 -15 55 -39 26 -23 47 -41 47 -39 0 2 33 -14 73 -36 144
-77 -56 -70 2242 -70 l2060 0 -2 -53 c-1 -28 -2 -55 -2 -59 -1 -5 -14 -8 -31
-8 -25 0 -30 -4 -30 -25 0 -14 4 -25 9 -25 22 0 39 13 34 26 -3 8 0 14 6 14 6
0 11 -7 11 -15 0 -8 3 -15 8 -15 8 0 5 -955 -4 -988 l-7 -23 -469 3 c-388 2
-470 5 -477 17 -7 11 -10 10 -14 -5 -4 -17 -6 -17 -12 4 -6 18 -10 21 -17 10
-5 -8 -8 77 -6 214 2 149 -1 231 -8 238 -7 7 -459 10 -1452 10 -1409 0 -1442
0 -1461 -19 -11 -11 -17 -22 -13 -25 3 -3 -2 -6 -12 -6 -10 0 -14 -5 -10 -11
4 -7 -4 -20 -17 -31 -13 -11 -17 -17 -9 -13 8 4 4 -3 -10 -15 -14 -12 -18 -19
-10 -15 10 4 9 2 -2 -8 -10 -8 -15 -17 -11 -20 3 -4 2 -7 -3 -7 -5 0 -18 -16
-28 -35 -10 -19 -23 -32 -28 -29 -5 3 -8 2 -7 -3 4 -15 -24 -63 -33 -57 -5 3
-8 2 -7 -3 4 -21 -2 -34 -13 -27 -7 4 -8 3 -4 -4 4 -7 -5 -24 -21 -39 -15 -16
-26 -29 -25 -31 2 -2 -8 -12 -23 -23 -14 -12 -22 -25 -19 -30 3 -6 -4 -18 -16
-29 -12 -10 -21 -21 -21 -24 2 -19 -3 -28 -40 -66 -23 -24 -36 -40 -28 -35 8
4 3 -3 -11 -16 -14 -13 -19 -19 -11 -14 10 7 9 2 -4 -18 -24 -37 -48 -49 -65
-34 -12 10 -12 9 -2 -4 6 -9 8 -20 4 -25 -4 -4 0 -4 8 1 9 6 4 -1 -10 -15 -14
-14 -21 -23 -15 -20 6 3 -1 -6 -15 -19 -14 -13 -18 -20 -11 -15 9 4 5 -6 -8
-24 -12 -18 -25 -32 -28 -32 -3 0 1 8 8 18 13 15 12 16 -3 3 -10 -7 -15 -17
-12 -22 2 -5 -18 -38 -46 -74 l-51 -66 2 -107 c1 -59 3 -191 5 -294 2 -143 0
-188 -9 -188 -7 0 -6 -4 3 -10 11 -7 11 -10 2 -10 -7 0 -11 -4 -8 -9 4 -5 8
-118 11 -250 4 -191 3 -241 -7 -241 -10 0 -10 -2 0 -9 8 -5 13 -23 12 -42 -1
-19 -2 -136 -1 -262 l1 -227 3033 2 c2677 3 3034 5 3052 18 11 8 21 22 23 30
2 8 8 20 14 25 8 7 8 5 3 -5 -8 -13 -7 -13 8 -1 19 15 23 26 6 15 -7 -4 -10
-1 -7 7 3 8 11 13 17 11 7 -1 10 2 7 6 -3 5 3 20 14 32 11 13 20 27 20 32 0 5
5 6 12 2 6 -4 8 -3 5 3 -5 9 66 118 96 148 15 15 -1 -12 -41 -68 -19 -26 -32
-47 -29 -47 5 0 57 71 91 125 19 30 19 30 0 15 -10 -8 -3 3 16 24 19 22 28 36
20 31 -8 -4 -1 5 15 20 17 14 23 23 15 19 -8 -5 2 9 23 29 21 21 34 43 31 49
-4 7 -2 8 4 4 7 -4 12 -1 12 8 0 9 6 15 13 14 6 -2 11 3 9 11 -1 7 5 20 15 28
10 8 12 11 3 7 -11 -5 -10 -2 2 12 27 29 60 71 122 159 32 44 62 79 68 77 5
-1 7 2 3 8 -8 13 40 72 50 62 5 -4 5 -1 1 5 -6 11 25 67 45 83 4 3 19 25 35
50 49 77 77 109 87 103 6 -3 7 -1 3 6 -4 6 0 14 8 17 9 3 14 10 11 14 -3 5 5
16 17 24 12 9 19 16 15 16 -5 0 1 14 13 30 12 17 25 28 29 26 4 -3 8 0 8 7 0
7 16 35 37 64 28 40 35 58 31 80 -3 15 -6 252 -7 526 -1 414 1 500 13 507 8 6
16 5 20 -2 9 -15 42 -1 37 15 -3 6 -17 12 -31 13 -14 1 -24 -3 -21 -7 3 -5 1
-9 -3 -9 -5 0 -8 32 -6 72 1 40 -3 78 -9 85 -6 7 -7 13 -2 13 5 0 7 104 4 236
-5 224 -4 235 13 230 14 -3 17 0 13 12 -5 13 -2 12 9 -3 14 -17 17 -18 25 -5
19 29 7 45 -30 42 l-35 -3 2 283 c3 307 -5 399 -42 480 -25 57 -149 193 -166
182 -5 -3 -8 0 -7 8 2 7 -5 12 -14 12 -10 -1 -16 2 -13 6 8 14 -122 91 -195
116 -65 22 -88 24 -246 24 -132 0 -174 3 -174 13 0 9 -3 8 -9 -2 -7 -10 -13
-11 -31 -1 -18 10 -21 9 -15 -1 6 -9 3 -10 -11 -4 -10 4 -132 9 -271 9 -138 1
-250 3 -248 6 2 3 -134 5 -301 5 -185 0 -304 -4 -304 -10 0 -5 -5 -4 -11 2 -7
7 -21 8 -33 4 -11 -3 -43 -5 -71 -4 -39 2 -214 9 -305 12 -13 1 -15 34 -12
251 l3 250 -228 -1 c-125 0 -239 -1 -253 0 l-25 1 3 200 3 200 -246 0 c-174 0
-245 -3 -245 -11 0 -8 -4 -8 -12 -1 -8 6 -106 11 -255 12 -193 1 -243 -2 -243
-12 0 -10 -2 -10 -8 -1 -6 10 -122 12 -515 10 -406 -2 -508 1 -512 11 -2 7 -5
224 -5 482 0 365 3 470 13 470 8 0 8 3 -2 9 -8 5 -11 16 -7 28 6 20 16 20 774
20 l768 0 0 -238 c-1 -130 1 -240 4 -243 7 -7 470 -13 470 -6 0 3 107 4 238 4
130 -1 245 3 255 8 11 6 17 5 17 -2 0 -6 3 -9 8 -7 4 3 6 -113 4 -256 -1 -144
1 -267 5 -273 9 -13 1404 -25 1616 -14 l109 5 39 45 c21 25 39 53 39 63 0 10
4 16 8 13 5 -3 16 9 25 27 25 47 177 255 248 338 8 10 57 74 109 143 51 69 97
123 102 120 5 -3 8 -2 7 3 -4 15 24 63 33 57 5 -3 7 -1 6 4 -2 6 25 48 59 95
l63 84 0 703 c0 387 -2 706 -6 709 -8 8 -895 6 -1044 -2 -63 -4 -122 -7 -130
-6 -8 0 -190 2 -404 5 -317 5 -390 3 -397 -8 -7 -10 -9 -9 -9 5 0 17 -13 18
-242 14 -134 -3 -268 -9 -298 -15 -33 -5 -57 -6 -61 0 -3 5 -86 9 -185 10 -98
0 -293 3 -431 5 -171 3 -253 1 -253 -6 0 -7 -32 -9 -92 -6 -138 8 -928 9 -935
1 -3 -3 -11 -2 -17 2 -6 4 -358 6 -783 4z m3555 -3329 c-26 -2 -71 -2 -100 0
-29 2 -8 3 47 3 55 0 79 -1 53 -3z m1195 -20 c-7 -2 -21 -2 -30 0 -10 3 -4 5
12 5 17 0 24 -2 18 -5z m-1923 -1073 c0 -5 -2 -10 -4 -10 -3 0 -8 5 -11 10 -3
6 -1 10 4 10 6 0 11 -4 11 -10z m2530 -35 c0 -8 -2 -15 -4 -15 -2 0 -6 7 -10
15 -3 8 -1 15 4 15 6 0 10 -7 10 -15z m-6740 -939 c0 -2 -8 -10 -17 -17 -16
-13 -17 -12 -4 4 13 16 21 21 21 13z"/>
<path d="M304 8805 c-7 -18 3 -35 21 -35 15 0 28 27 19 41 -8 14 -34 11 -40
-6z"/>
<path d="M594 8806 c-7 -19 3 -36 22 -36 10 0 14 8 12 22 -4 26 -26 36 -34 14z"/>
<path d="M854 8805 c-4 -9 -2 -21 4 -27 15 -15 44 -1 40 19 -4 23 -36 29 -44
8z"/>
<path d="M1094 8805 c-4 -9 -2 -21 4 -27 15 -15 44 -1 40 19 -4 23 -36 29 -44
8z"/>
<path d="M1696 8805 c-3 -10 1 -15 13 -15 11 0 21 -6 24 -12 2 -7 4 -1 4 15 0
19 -5 27 -17 27 -10 0 -20 -7 -24 -15z"/>
<path d="M1873 8809 c-8 -8 -9 -18 -2 -30 12 -24 41 -13 37 14 -4 25 -19 32
-35 16z"/>
<path d="M2114 8806 c-7 -19 3 -36 22 -36 10 0 14 8 12 22 -4 26 -26 36 -34
14z"/>
<path d="M8922 8807 c-14 -17 1 -42 21 -34 17 6 17 39 0 44 -5 2 -15 -2 -21
-10z"/>
<path d="M9194 8805 c-7 -18 3 -35 21 -35 18 0 26 25 12 39 -15 15 -27 14 -33
-4z"/>
<path d="M9467 8814 c-16 -16 -7 -44 14 -44 15 0 20 5 17 22 -3 22 -19 33 -31
22z"/>
<path d="M9743 8804 c-8 -21 13 -42 28 -27 13 13 5 43 -11 43 -6 0 -13 -7 -17
-16z"/>
<path d="M10024 8805 c-4 -9 -2 -21 4 -27 15 -15 44 -1 40 19 -4 23 -36 29
-44 8z m28 -10 c0 -5 -5 -11 -11 -13 -6 -2 -11 4 -11 13 0 9 5 15 11 13 6 -2
11 -8 11 -13z"/>
<path d="M1424 8685 c-7 -18 3 -35 21 -35 15 0 28 27 19 41 -8 14 -34 11 -40
-6z m28 -9 c7 4 8 2 4 -4 -11 -18 -26 -14 -25 6 0 10 3 12 6 4 2 -6 10 -9 15
-6z"/>
<path d="M1602 8678 c2 -13 10 -23 18 -23 8 0 16 10 18 23 3 17 -2 22 -18 22
-16 0 -21 -5 -18 -22z"/>
<path d="M2274 8561 c2 -25 26 -24 25 1 0 21 -1 22 -8 3 -7 -16 -9 -17 -13 -5
-4 11 -5 12 -4 1z"/>
<path d="M1586 8535 c-3 -9 1 -18 10 -22 19 -7 39 11 30 26 -10 16 -33 13 -40
-4z"/>
<path d="M9216 8543 c-11 -12 -6 -40 10 -54 13 -10 17 -10 24 2 6 8 6 15 0 17
-6 2 -10 10 -10 17 0 16 -14 27 -24 18z m17 -23 c3 -11 1 -20 -4 -20 -5 0 -9
9 -9 20 0 11 2 20 4 20 2 0 6 -9 9 -20z"/>
<path d="M594 8525 c-7 -18 3 -35 22 -35 8 0 14 10 14 25 0 27 -27 35 -36 10z"/>
<path d="M872 8513 c4 -34 38 -46 38 -14 0 13 -7 21 -17 22 -15 0 -15 2 2 9
19 8 19 9 -3 9 -20 1 -23 -3 -20 -26z m28 -13 c0 -5 -4 -10 -10 -10 -5 0 -10
5 -10 10 0 6 5 10 10 10 6 0 10 -4 10 -10z"/>
<path d="M1074 8526 c-8 -20 8 -47 23 -38 6 4 13 16 15 27 4 23 -29 34 -38 11z"/>
<path d="M1873 8533 c-22 -8 -15 -43 7 -43 13 0 20 7 20 19 0 22 -9 30 -27 24z"/>
<path d="M9474 8526 c-7 -19 3 -36 22 -36 10 0 14 8 12 22 -4 26 -26 36 -34
14z"/>
<path d="M9767 8534 c-16 -16 -7 -44 14 -44 15 0 20 5 17 22 -3 22 -19 33 -31
22z"/>
<path d="M302 8513 c4 -22 43 -25 43 -3 0 8 -11 16 -23 18 -19 3 -23 0 -20
-15z"/>
<path d="M10014 8510 c2 -21 40 -19 42 3 1 12 1 13 -3 2 -5 -18 -30 -20 -36
-2 -2 7 -3 6 -3 -3z"/>
<path d="M904 8415 c-8 -20 2 -45 18 -45 9 0 8 3 -2 10 -13 8 -12 10 3 10 19
0 20 2 11 24 -8 20 -23 21 -30 1z m21 -5 c3 -5 1 -10 -4 -10 -6 0 -11 5 -11
10 0 6 2 10 4 10 3 0 8 -4 11 -10z"/>
<path d="M8932 8411 c-18 -11 -11 -45 9 -49 21 -4 31 22 16 42 -8 10 -17 13
-25 7z"/>
<path d="M9604 8347 c-7 -20 1 -47 15 -47 17 0 22 33 7 49 -14 13 -16 13 -22
-2z"/>
<path d="M987 8334 c-13 -13 -7 -42 9 -48 24 -9 26 -8 22 21 -3 26 -18 39 -31
27z m20 -24 c1 -11 -2 -18 -8 -15 -11 7 -12 35 -1 35 4 0 8 -9 9 -20z"/>
<path d="M9880 8315 c0 -26 24 -35 32 -12 7 18 -2 37 -18 37 -8 0 -14 -10 -14
-25z"/>
<path d="M9382 8321 c-18 -11 -11 -45 9 -49 9 -2 19 5 23 14 8 22 -14 46 -32
35z m24 -13 c5 -7 3 -8 -6 -3 -10 6 -12 4 -7 -8 3 -10 2 -17 -3 -17 -11 0 -13
23 -3 33 9 9 11 9 19 -5z"/>
<path d="M1082 8238 c-8 -8 -8 -17 0 -31 10 -20 11 -20 24 -3 12 17 9 46 -5
46 -4 0 -12 -5 -19 -12z m15 -30 c-3 -7 -5 -2 -5 12 0 14 2 19 5 13 2 -7 2
-19 0 -25z"/>
<path d="M323 8233 c-13 -5 -18 -35 -7 -46 11 -11 34 5 34 23 0 22 -10 29 -27
23z"/>
<path d="M587 8234 c-14 -14 -7 -36 9 -30 9 4 13 2 8 -5 -4 -7 -1 -10 7 -7 19
6 18 42 -1 46 -9 1 -19 0 -23 -4z"/>
<path d="M1782 8227 c-14 -17 2 -42 22 -34 20 8 20 21 2 36 -10 8 -16 8 -24
-2z"/>
<path d="M1617 8213 c-14 -13 -6 -33 13 -33 13 0 20 7 20 20 0 19 -20 27 -33
13z"/>
<path d="M9191 8183 c0 -16 3 -22 6 -15 4 10 8 10 19 1 11 -9 14 -7 14 15 0
19 -5 26 -20 26 -15 0 -20 -6 -19 -27z"/>
<path d="M8735 8190 c4 -6 -1 -7 -10 -3 -13 4 -16 1 -13 -18 4 -33 32 -31 36
4 2 15 -2 27 -8 27 -6 0 -8 -4 -5 -10z m5 -30 c0 -5 -4 -10 -10 -10 -5 0 -10
5 -10 10 0 6 5 10 10 10 6 0 10 -4 10 -10z"/>
<path d="M8935 8190 c-8 -14 3 -30 21 -30 9 0 12 -5 8 -12 -4 -6 -3 -8 4 -4 6
3 10 15 9 26 -1 10 -5 16 -9 14 -4 -3 -8 0 -8 5 0 14 -17 14 -25 1z"/>
<path d="M1910 8133 c0 -15 -2 -16 -10 -3 -8 12 -10 12 -11 -5 l0 -20 -9 20
c-6 13 -9 15 -9 5 0 -8 3 -21 7 -28 7 -10 12 -8 24 5 23 28 30 43 19 43 -6 0
-11 -8 -11 -17z"/>
<path d="M1190 8124 c-9 -10 -10 -18 -2 -26 12 -12 32 -2 32 17 0 21 -16 26
-30 9z m17 -9 c0 -8 -4 -12 -9 -9 -5 3 -6 10 -3 15 9 13 12 11 12 -6z"/>
<path d="M1936 8112 c-2 -4 -1 -14 4 -22 7 -11 12 -12 21 -3 6 6 8 16 5 22 -8
13 -23 14 -30 3z"/>
<path d="M593 7934 c-8 -21 13 -42 28 -27 13 13 5 43 -11 43 -6 0 -13 -7 -17
-16z"/>
<path d="M891 7941 c-17 -11 -7 -41 13 -41 22 0 30 20 15 36 -9 8 -19 10 -28
5z"/>
<path d="M1370 7925 c0 -20 4 -26 18 -23 9 2 17 12 17 23 0 11 -8 21 -17 23
-14 3 -18 -3 -18 -23z"/>
<path d="M1580 7924 c0 -33 33 -30 38 4 3 17 -2 22 -17 22 -16 0 -21 -6 -21
-26z"/>
<path d="M1800 7925 c0 -20 4 -26 18 -23 9 2 17 12 17 23 0 11 -8 21 -17 23
-14 3 -18 -3 -18 -23z"/>
<path d="M8930 7940 c-11 -7 -11 -10 -2 -10 7 0 10 -5 7 -10 -3 -6 1 -13 10
-17 21 -8 38 17 23 34 -12 15 -18 16 -38 3z"/>
<path d="M9184 7935 c-3 -8 -3 -19 1 -25 9 -15 32 -12 39 5 3 8 1 15 -5 15 -6
0 -7 5 -4 10 3 6 -1 10 -10 10 -8 0 -18 -7 -21 -15z"/>
<path d="M9463 7943 c-17 -6 -16 -28 1 -42 21 -17 45 15 25 33 -8 8 -20 12
-26 9z m20 -34 c-8 -8 -13 -7 -18 2 -5 8 -4 10 3 5 7 -4 12 -2 12 5 0 7 3 9 7
6 4 -4 2 -12 -4 -18z"/>
<path d="M9740 7936 c0 -9 5 -16 11 -16 5 0 7 5 4 10 -3 6 -1 10 4 10 18 0 12
-28 -6 -33 -13 -3 -12 -5 5 -6 19 -1 23 3 20 21 -3 26 -38 38 -38 14z"/>
<path d="M1180 7795 c-15 -18 -6 -45 14 -45 15 0 25 27 19 48 -6 16 -18 15
-33 -3z"/>
<path d="M9023 7693 c-16 -6 -17 -53 -2 -53 5 0 7 6 3 13 -6 9 -4 9 8 -1 13
-10 17 -10 22 4 12 30 -2 47 -31 37z"/>
<path d="M891 7667 c-13 -13 -14 -34 -2 -41 16 -10 41 5 41 24 0 22 -24 32
-39 17z m13 -23 c3 -8 2 -12 -4 -9 -6 3 -10 10 -10 16 0 14 7 11 14 -7z"/>
<path d="M9442 7668 c-15 -15 -15 -35 0 -44 7 -4 8 -3 4 4 -4 7 -1 12 9 12 10
0 13 -5 9 -12 -4 -7 -3 -8 4 -4 19 12 14 26 -9 26 -18 0 -19 2 -9 15 15 18 9
20 -8 3z"/>
<path d="M312 7648 c2 -13 10 -23 18 -23 8 0 16 10 18 23 3 17 -2 22 -18 22
-16 0 -21 -5 -18 -22z"/>
<path d="M9183 7654 c-3 -8 -1 -20 5 -26 16 -16 42 -2 42 22 0 24 -38 28 -47
4z"/>
<path d="M1070 7635 c-14 -16 -5 -35 16 -35 15 0 20 35 5 44 -5 3 -14 -1 -21
-9z"/>
<path d="M1429 7583 c-11 -13 -11 -15 -1 -9 9 6 12 3 10 -10 -2 -12 3 -19 12
-19 9 0 15 9 15 24 0 30 -18 37 -36 14z"/>
<path d="M1201 7571 c-15 -10 -8 -41 9 -41 15 0 25 29 14 40 -5 5 -15 5 -23 1z"/>
<path d="M8900 7540 c0 -15 5 -20 18 -18 9 2 17 10 17 18 0 8 -8 16 -17 18
-13 2 -18 -3 -18 -18z m30 0 c0 -5 -5 -10 -11 -10 -5 0 -7 5 -4 10 3 6 8 10
11 10 2 0 4 -4 4 -10z"/>
<path d="M4737 7483 c-15 -14 -7 -43 12 -43 17 0 31 18 31 41 0 10 -33 12 -43
2z"/>
<path d="M9224 7435 c-4 -8 -3 -22 0 -31 5 -13 9 -14 21 -4 8 7 15 21 15 31 0
23 -28 25 -36 4z m26 -19 c0 -3 -4 -8 -10 -11 -5 -3 -10 -1 -10 4 0 6 5 11 10
11 6 0 10 -2 10 -4z"/>
<path d="M9017 7383 c-15 -15 -7 -43 13 -43 15 0 20 7 20 25 0 24 -18 34 -33
18z"/>
<path d="M306 7371 c-9 -14 4 -41 19 -41 15 0 28 27 19 41 -3 5 -11 9 -19 9
-8 0 -16 -4 -19 -9z"/>
<path d="M594 7365 c-7 -18 3 -35 22 -35 8 0 14 10 14 25 0 27 -27 35 -36 10z"/>
<path d="M864 7365 c-4 -9 -2 -21 4 -27 15 -15 44 -1 40 19 -4 23 -36 29 -44
8z"/>
<path d="M1097 7374 c-16 -16 -7 -44 14 -44 15 0 20 5 17 22 -3 22 -19 33 -31
22z"/>
<path d="M9450 7355 c0 -20 4 -26 18 -23 9 2 17 12 17 23 0 11 -8 21 -17 23
-14 3 -18 -3 -18 -23z"/>
<path d="M9736 7371 c-10 -16 5 -42 23 -39 21 4 21 42 -1 46 -9 2 -19 -1 -22
-7z"/>
<path d="M10016 7364 c-4 -10 -2 -22 3 -27 15 -15 46 -3 46 18 0 26 -40 33
-49 9z m21 -9 c0 -8 -4 -15 -9 -15 -10 0 -11 14 -1 23 9 10 10 9 10 -8z m20
-7 c-3 -8 -6 -5 -6 6 -1 11 2 17 5 13 3 -3 4 -12 1 -19z"/>
<path d="M1416 7361 c-3 -4 1 -17 9 -27 13 -16 16 -17 25 -4 5 8 10 21 10 28
0 13 -36 17 -44 3z"/>
<path d="M8666 7343 c-3 -4 -6 -15 -6 -25 0 -24 33 -21 38 3 3 17 -21 33 -32
22z"/>
<path d="M4544 7325 c-4 -9 -2 -21 4 -27 15 -15 44 -1 40 19 -4 23 -36 29 -44
8z"/>
<path d="M4157 7323 c-4 -3 -7 -15 -7 -26 0 -13 5 -17 16 -13 9 4 13 2 8 -5
-4 -7 -1 -10 7 -7 16 5 19 28 6 46 -11 13 -20 15 -30 5z"/>
<path d="M9143 7314 c-3 -8 1 -22 9 -30 13 -13 16 -13 28 0 10 13 10 19 0 31
-16 19 -29 19 -37 -1z m32 -12 c0 -18 -20 -15 -23 4 -3 10 1 15 10 12 7 -3 13
-10 13 -16z"/>
<path d="M3945 7311 c-3 -5 2 -17 12 -26 16 -16 17 -16 30 0 7 10 10 22 7 26
-7 12 -41 11 -49 0z"/>
<path d="M4810 7301 c0 -28 21 -37 36 -16 16 22 10 35 -17 35 -12 0 -19 -7
-19 -19z"/>
<path d="M610 7245 c-15 -18 -6 -45 14 -45 18 0 27 37 11 50 -9 7 -16 6 -25
-5z m24 -3 c3 -5 -1 -9 -9 -9 -8 0 -12 4 -9 9 3 4 7 8 9 8 2 0 6 -4 9 -8z"/>
<path d="M4092 7192 c-13 -23 -4 -42 19 -42 13 0 19 7 19 24 0 29 -26 42 -38
18z"/>
<path d="M9534 7105 c-7 -18 3 -35 21 -35 15 0 28 27 19 41 -8 14 -34 11 -40
-6z"/>
<path d="M3951 7061 c-17 -11 -7 -41 13 -41 22 0 30 20 15 36 -9 8 -19 10 -28
5z"/>
<path d="M4553 7063 c-18 -6 -16 -40 1 -46 8 -3 20 1 27 9 10 12 9 18 -2 28
-8 8 -20 12 -26 9z"/>
<path d="M4785 7054 c-16 -17 -16 -18 1 -31 23 -17 31 -16 38 4 4 9 0 23 -7
30 -12 12 -17 12 -32 -3z"/>
<path d="M306 7051 c-7 -11 3 -41 14 -41 13 0 32 29 25 40 -8 12 -32 13 -39 1z
m18 -17 c3 -8 2 -12 -4 -9 -6 3 -10 10 -10 16 0 14 7 11 14 -7z"/>
<path d="M866 7051 c-9 -14 4 -41 19 -41 15 0 24 19 18 38 -5 14 -29 16 -37 3z"/>
<path d="M1083 7044 c-7 -18 11 -39 26 -30 17 11 13 46 -4 46 -9 0 -18 -7 -22
-16z"/>
<path d="M1423 7044 c-7 -20 11 -38 31 -31 9 4 12 13 9 26 -6 25 -31 28 -40 5z
m22 -4 c-3 -5 -1 -10 6 -10 7 0 10 -3 6 -6 -9 -9 -28 6 -22 17 4 5 8 9 11 9 3
0 2 -4 -1 -10z"/>
<path d="M5034 7045 c-7 -18 3 -35 20 -35 14 0 28 35 18 44 -10 11 -33 6 -38
-9z"/>
<path d="M9184 7045 c-4 -9 -2 -21 4 -27 15 -15 44 -1 40 19 -4 23 -36 29 -44
8z"/>
<path d="M9773 7044 c-7 -18 11 -39 26 -30 17 11 13 46 -4 46 -9 0 -18 -7 -22
-16z"/>
<path d="M10024 7045 c-4 -9 -2 -21 4 -27 15 -15 44 -1 40 19 -4 23 -36 29
-44 8z m36 -10 c0 -8 -7 -15 -15 -15 -8 0 -15 5 -15 11 0 5 5 7 10 4 6 -3 10
-1 10 4 0 6 2 11 5 11 3 0 5 -7 5 -15z"/>
<path d="M587 7043 c-4 -3 -7 -16 -7 -27 0 -16 2 -18 9 -7 7 11 9 11 14 0 3
-11 7 -11 17 -2 11 10 11 15 0 28 -14 16 -23 19 -33 8z"/>
<path d="M4297 7043 c-3 -4 -3 -21 0 -36 8 -39 38 -32 38 8 0 29 -26 48 -38
28z"/>
<path d="M8390 7019 c-8 -15 -7 -21 4 -25 19 -7 36 3 36 21 0 22 -29 26 -40 4z
m25 2 c3 -5 2 -12 -3 -15 -5 -3 -9 1 -9 9 0 17 3 19 12 6z"/>
<path d="M8941 7031 c-1 -8 7 -23 17 -34 16 -20 16 -20 -3 -13 -16 6 -18 5 -7
-5 9 -10 15 -10 24 -1 7 7 8 12 3 12 -6 0 -4 4 4 9 15 10 8 41 -9 41 -5 0 -10
-8 -11 -17 0 -15 -2 -15 -9 2 -5 12 -9 14 -9 6z"/>
<path d="M9443 7024 c-3 -8 1 -22 9 -30 13 -13 16 -13 28 0 10 13 10 19 0 31
-16 19 -29 19 -37 -1z m37 -20 c0 -8 -19 -13 -24 -6 -3 5 1 9 9 9 8 0 15 -2
15 -3z"/>
<path d="M6050 7011 c0 -20 13 -41 25 -41 15 0 28 27 19 41 -7 12 -44 12 -44
0z"/>
<path d="M5864 6955 c-8 -21 3 -45 20 -45 16 0 31 34 21 50 -9 15 -35 12 -41
-5z"/>
<path d="M1500 6879 c-8 -14 -9 -24 -2 -31 14 -14 32 -1 32 22 0 28 -17 33
-30 9z"/>
<path d="M6093 6853 c-7 -3 -13 -16 -13 -29 0 -17 6 -24 20 -24 15 0 20 7 20
24 0 27 -8 36 -27 29z"/>
<path d="M9063 6844 c-8 -21 13 -42 28 -27 13 13 5 43 -11 43 -6 0 -13 -7 -17
-16z"/>
<path d="M9594 6805 c-8 -20 3 -48 18 -43 18 6 18 38 0 39 -14 0 -13 2 3 9 18
8 18 9 2 9 -10 1 -20 -6 -23 -14z"/>
<path d="M4210 6755 c-15 -19 -6 -47 14 -39 21 8 27 31 12 43 -10 8 -17 7 -26
-4z"/>
<path d="M8860 6761 c0 -21 13 -41 26 -41 8 0 14 10 14 25 0 18 -5 25 -20 25
-11 0 -20 -4 -20 -9z m24 -17 c3 -8 2 -12 -4 -9 -6 3 -10 10 -10 16 0 14 7 11
14 -7z"/>
<path d="M312 6747 c-15 -17 1 -42 23 -33 18 6 17 37 -1 43 -6 2 -16 -2 -22
-10z m21 -18 c-8 -8 -13 -7 -18 2 -5 8 -4 10 3 5 7 -4 12 -2 12 5 0 7 3 9 7 6
4 -4 2 -12 -4 -18z"/>
<path d="M594 6746 c-7 -19 3 -36 22 -36 10 0 14 8 12 22 -4 26 -26 36 -34 14z"/>
<path d="M864 6746 c-7 -19 3 -36 22 -36 10 0 14 8 12 22 -4 26 -26 36 -34 14z"/>
<path d="M1074 6746 c-7 -19 3 -36 22 -36 10 0 14 8 12 22 -4 26 -26 36 -34
14z"/>
<path d="M1364 6745 c-7 -18 3 -35 22 -35 8 0 14 10 14 25 0 27 -27 35 -36 10z"/>
<path d="M3830 6741 c0 -22 21 -33 40 -21 18 11 4 40 -20 40 -13 0 -20 -7 -20
-19z m24 -7 c3 -8 2 -12 -4 -9 -6 3 -10 10 -10 16 0 14 7 11 14 -7z"/>
<path d="M4530 6741 c0 -24 25 -34 40 -16 15 18 5 35 -21 35 -12 0 -19 -7 -19
-19z"/>
<path d="M4853 6744 c-2 -7 -2 -18 2 -24 10 -16 35 -12 35 6 0 8 5 12 10 9 6
-3 10 -2 10 3 0 16 -51 21 -57 6z"/>
<path d="M5232 6738 c2 -13 10 -23 18 -23 8 0 16 10 18 23 3 17 -2 22 -18 22
-16 0 -21 -5 -18 -22z m25 -3 c0 -8 -4 -12 -9 -9 -5 3 -6 10 -3 15 9 13 12 11
12 -6z"/>
<path d="M5666 6751 c-10 -16 5 -42 23 -39 21 4 21 42 -1 46 -9 2 -19 -1 -22
-7z m21 -16 c0 -8 -4 -12 -9 -9 -5 3 -6 10 -3 15 9 13 12 11 12 -6z"/>
<path d="M5870 6735 c0 -18 5 -25 20 -25 15 0 20 7 20 25 0 18 -5 25 -20 25
-15 0 -20 -7 -20 -25z"/>
<path d="M8403 6753 c-16 -6 -17 -33 -2 -33 5 0 8 4 5 8 -3 5 1 9 8 9 8 0 12
-7 9 -16 -4 -14 -4 -14 6 -1 6 8 11 18 11 21 0 10 -23 17 -37 12z"/>
<path d="M9204 6746 c-7 -19 3 -36 22 -36 10 0 14 8 12 22 -4 26 -26 36 -34
14z"/>
<path d="M9453 6753 c-18 -6 -16 -40 1 -46 22 -9 38 16 23 35 -6 9 -18 14 -24
11z"/>
<path d="M10042 6730 c2 -26 4 -28 16 -16 16 15 10 46 -8 46 -6 0 -9 -14 -8
-30z"/>
<path d="M10021 6734 c0 -11 3 -14 6 -6 3 7 2 16 -1 19 -3 4 -6 -2 -5 -13z"/>
<path d="M4954 6703 c3 -8 6 -19 6 -24 0 -5 9 -9 20 -9 13 0 20 7 20 20 0 11
-3 20 -7 21 -5 0 -16 2 -26 4 -13 2 -17 -1 -13 -12z"/>
<path d="M9674 6695 c-7 -17 2 -45 13 -45 24 1 35 18 24 39 -14 25 -29 27 -37
6z"/>
<path d="M8934 6655 c-18 -13 -18 -15 -2 -31 19 -19 38 -11 38 16 0 26 -14 32
-36 15z"/>
<path d="M6020 6641 c0 -19 23 -35 34 -24 14 15 5 43 -14 43 -13 0 -20 -7 -20
-19z m25 -1 c3 -5 1 -10 -4 -10 -6 0 -11 5 -11 10 0 6 2 10 4 10 3 0 8 -4 11
-10z"/>
<path d="M5096 6603 c-3 -3 -6 -17 -6 -29 0 -16 6 -22 18 -21 14 1 17 7 14 24
-5 25 -16 36 -26 26z"/>
<path d="M8087 6603 c-12 -11 -8 -23 9 -23 8 0 12 -4 9 -10 -3 -5 -1 -10 4
-10 6 0 11 11 11 25 0 24 -18 34 -33 18z"/>
<path d="M1177 6593 c-13 -12 -7 -43 8 -43 22 0 38 37 19 44 -19 7 -19 7 -27
-1z"/>
<path d="M5866 6464 c-21 -21 -16 -38 13 -42 18 -3 21 1 18 22 -4 35 -12 40
-31 20z"/>
<path d="M7464 6473 c4 -8 2 -13 -5 -13 -8 0 -8 -4 1 -15 7 -8 17 -12 23 -8 6
3 7 1 3 -6 -6 -9 -11 -9 -22 0 -9 7 -14 8 -14 1 0 -13 21 -21 38 -14 18 6 15
27 -10 48 -12 10 -18 13 -14 7z"/>
<path d="M7835 6467 c-28 -16 -25 -41 4 -45 21 -3 23 0 19 22 -3 14 0 27 6 30
6 2 7 5 1 5 -5 0 -19 -5 -30 -12z"/>
<path d="M724 6455 c-7 -18 3 -35 21 -35 18 0 26 15 19 34 -8 20 -33 21 -40 1z"/>
<path d="M1433 6463 c-16 -6 -17 -39 -2 -49 6 -3 16 -1 22 5 13 13 -3 50 -20
44z"/>
<path d="M7937 6463 c-4 -3 -7 -16 -7 -27 0 -17 2 -18 10 -6 9 14 14 7 11 -13
-1 -5 4 -7 11 -5 16 6 18 28 5 46 -11 13 -20 15 -30 5z"/>
<path d="M8147 6463 c-15 -15 -7 -43 13 -43 21 0 24 8 14 34 -7 17 -16 20 -27
9z"/>
<path d="M8391 6461 c-17 -11 -10 -46 9 -46 17 0 26 33 13 46 -4 4 -14 4 -22
0z"/>
<path d="M8665 6454 c-12 -13 -13 -19 -4 -30 16 -19 31 -13 35 14 5 28 -10 36
-31 16z m20 -32 c-3 -3 -11 0 -18 7 -9 10 -8 11 6 5 10 -3 15 -9 12 -12z"/>
<path d="M319 6458 c-11 -37 -2 -52 25 -42 24 9 20 44 -4 44 -11 0 -20 -1 -21
-2z"/>
<path d="M1066 6451 c-10 -16 6 -42 23 -39 9 2 17 12 19 22 3 14 0 17 -13 13
-9 -4 -14 -3 -10 3 3 6 2 10 -4 10 -5 0 -12 -4 -15 -9z"/>
<path d="M9215 6450 c-3 -5 3 -14 12 -20 17 -11 17 -11 1 -6 -10 3 -18 1 -18
-4 0 -6 9 -10 20 -10 13 0 20 7 20 19 0 20 -26 36 -35 21z"/>
<path d="M474 6426 c-8 -22 3 -49 19 -43 6 2 12 14 12 27 0 27 -22 39 -31 16z"/>
<path d="M9025 6410 c-4 -6 -1 -17 5 -26 15 -18 42 0 33 22 -6 16 -29 19 -38
4z m22 -15 c0 -8 -4 -12 -9 -9 -5 3 -6 10 -3 15 9 13 12 11 12 -6z"/>
<path d="M948 6398 c-8 -21 2 -38 22 -38 22 0 33 23 17 39 -15 15 -34 14 -39
-1z"/>
<path d="M5773 6384 c-8 -22 5 -46 24 -42 27 5 29 44 3 51 -13 3 -23 0 -27 -9z"/>
<path d="M6551 6371 c-15 -10 -11 -43 6 -48 6 -2 16 5 22 15 13 24 -7 46 -28
33z"/>
<path d="M7024 6365 c-8 -21 10 -39 30 -32 22 9 20 24 -4 37 -16 9 -22 8 -26
-5z m13 -17 c-3 -8 -6 -5 -6 6 -1 11 2 17 5 13 3 -3 4 -12 1 -19z"/>
<path d="M8015 6370 c-4 -6 -1 -18 6 -26 10 -12 9 -13 -7 -8 -15 5 -16 4 -4
-4 22 -16 43 4 29 29 -11 22 -15 23 -24 9z"/>
<path d="M6271 6356 c-14 -17 -7 -36 14 -36 22 0 29 20 13 36 -13 13 -16 13
-27 0z"/>
<path d="M6374 6185 c-8 -21 3 -47 19 -43 6 3 13 14 15 25 4 24 -26 40 -34 18z"/>
<path d="M313 6183 c-17 -6 -16 -28 1 -42 21 -17 45 15 25 33 -8 8 -20 12 -26
9z m19 -27 c7 4 8 2 4 -5 -9 -13 -26 -5 -25 12 0 9 2 8 6 -1 2 -6 10 -9 15 -6z"/>
<path d="M591 6176 c-14 -17 -7 -36 14 -36 22 0 29 20 13 36 -13 13 -16 13
-27 0z m29 -18 c0 -4 -4 -8 -9 -8 -6 0 -12 4 -15 8 -3 5 1 9 9 9 8 0 15 -4 15
-9z"/>
<path d="M7283 6179 c-6 -6 -8 -20 -6 -30 8 -28 38 -20 38 10 0 27 -15 37 -32
20z"/>
<path d="M8107 6183 c-15 -15 -7 -43 13 -43 21 0 24 8 14 34 -7 17 -16 20 -27
9z"/>
<path d="M8654 6175 c-7 -18 3 -35 21 -35 21 0 28 19 15 35 -16 19 -29 19 -36
0z"/>
<path d="M882 6158 c2 -13 10 -23 18 -23 8 0 16 10 18 23 3 17 -2 22 -18 22
-16 0 -21 -5 -18 -22z"/>
<path d="M1162 6158 c2 -12 10 -23 18 -23 22 0 19 39 -3 43 -15 3 -18 -1 -15
-20z"/>
<path d="M1420 6160 c0 -15 5 -20 18 -18 9 2 17 10 17 18 0 8 -8 16 -17 18
-13 2 -18 -3 -18 -18z"/>
<path d="M6722 6158 c2 -12 10 -23 18 -23 22 0 19 39 -3 43 -15 3 -18 -1 -15
-20z"/>
<path d="M7822 6163 c4 -22 43 -25 43 -3 0 8 -11 16 -23 18 -19 3 -23 0 -20
-15z"/>
<path d="M8380 6160 c0 -13 7 -20 20 -20 13 0 20 7 20 20 0 13 -7 20 -20 20
-13 0 -20 -7 -20 -20z"/>
<path d="M8930 6160 c0 -23 35 -28 43 -6 7 18 -1 26 -25 26 -11 0 -18 -7 -18
-20z"/>
<path d="M9195 6170 c-4 -6 -1 -17 5 -26 14 -16 40 -2 40 22 0 16 -36 19 -45
4z m27 -9 c8 11 9 11 6 1 -4 -16 -22 -18 -24 -2 -2 7 -1 6 3 -1 4 -8 8 -7 15
2z"/>
<path d="M9470 6159 c0 -25 33 -22 38 4 2 12 -3 17 -17 17 -15 0 -21 -6 -21
-21z"/>
<path d="M9707 6166 c-3 -8 0 -20 8 -26 11 -9 16 -7 24 8 6 11 7 22 4 26 -11
11 -31 6 -36 -8z"/>
<path d="M6837 6064 c-16 -16 -7 -44 14 -44 15 0 20 5 17 22 -3 22 -19 33 -31
22z"/>
<path d="M7207 6049 c-3 -13 0 -22 9 -26 20 -7 38 11 31 31 -9 23 -34 20 -40
-5z"/>
<path d="M987 6044 c-15 -15 -7 -45 11 -42 9 2 17 12 17 22 0 20 -16 31 -28
20z"/>
<path d="M7582 6033 c5 -26 38 -29 38 -4 0 15 -6 21 -21 21 -14 0 -19 -5 -17
-17z"/>
<path d="M9333 6024 c-7 -18 11 -39 26 -30 17 11 13 46 -4 46 -9 0 -18 -7 -22
-16z"/>
<path d="M9592 6018 c2 -13 10 -23 18 -23 8 0 16 10 18 23 3 17 -2 22 -18 22
-16 0 -21 -5 -18 -22z m25 -3 c0 -8 -4 -15 -9 -15 -4 0 -8 7 -8 15 0 8 4 15 8
15 5 0 9 -7 9 -15z"/>
<path d="M6630 5969 c-8 -15 -7 -21 4 -25 19 -7 36 3 36 21 0 22 -29 26 -40 4z"/>
<path d="M594 5895 c-4 -8 0 -22 7 -31 12 -14 14 -14 26 2 9 13 10 21 2 31
-15 17 -28 17 -35 -2z"/>
<path d="M1160 5891 c0 -25 19 -38 31 -20 12 19 6 33 -14 37 -11 2 -17 -3 -17
-17z"/>
<path d="M6538 5904 c-10 -9 4 -44 18 -44 17 0 25 15 18 34 -6 16 -25 21 -36
10z"/>
<path d="M6904 5896 c-8 -22 3 -49 19 -43 6 2 12 14 12 27 0 27 -22 39 -31 16z"/>
<path d="M7445 5900 c-9 -15 14 -40 31 -33 22 8 18 43 -5 43 -11 0 -23 -5 -26
-10z"/>
<path d="M8657 5903 c-11 -10 -8 -41 4 -49 16 -9 41 20 33 39 -6 17 -25 22
-37 10z m33 -29 c0 -8 -19 -13 -24 -6 -3 5 1 9 9 9 8 0 15 -2 15 -3z"/>
<path d="M9765 5900 c-4 -6 1 -18 11 -26 18 -15 18 -15 -1 -9 -16 5 -18 4 -7
-6 15 -16 35 1 30 27 -4 21 -23 29 -33 14z"/>
<path d="M306 5891 c-10 -16 5 -42 23 -39 21 4 21 42 -1 46 -9 2 -19 -1 -22
-7z"/>
<path d="M864 5886 c-7 -19 3 -36 22 -36 10 0 14 8 12 22 -4 26 -26 36 -34 14z"/>
<path d="M8172 5892 c-17 -12 -4 -44 17 -40 17 4 22 39 6 45 -5 1 -16 -1 -23
-5z"/>
<path d="M9445 5890 c-4 -6 -1 -18 6 -26 12 -14 14 -14 26 2 7 9 10 21 7 25
-7 12 -31 11 -39 -1z"/>
<path d="M10023 5884 c-6 -17 14 -36 32 -31 6 2 11 13 13 25 3 17 -2 22 -18
22 -11 0 -23 -7 -27 -16z"/>
<path d="M8951 5796 c-14 -17 -5 -59 12 -53 23 7 32 36 16 52 -14 14 -17 14
-28 1z m25 -32 c-5 -13 -10 -14 -18 -6 -6 6 -8 18 -4 28 5 13 10 14 18 6 6 -6
8 -18 4 -28z"/>
<path d="M8961 5774 c0 -11 3 -14 6 -6 3 7 2 16 -1 19 -3 4 -6 -2 -5 -13z"/>
<path d="M980 5781 c0 -10 7 -24 15 -31 12 -10 16 -9 21 4 3 9 4 23 0 31 -8
21 -36 19 -36 -4z"/>
<path d="M8407 5793 c-11 -10 -8 -41 3 -48 19 -12 41 15 29 36 -10 20 -21 24
-32 12z m19 -23 c0 -12 -4 -16 -9 -11 -5 5 -6 14 -3 20 10 15 12 14 12 -9z"/>
<path d="M9194 5765 c-9 -22 0 -50 16 -50 21 0 26 51 5 59 -9 3 -18 0 -21 -9z
m21 -35 c3 -5 1 -10 -4 -10 -6 0 -11 5 -11 10 0 6 2 10 4 10 3 0 8 -4 11 -10z"/>
<path d="M591 5637 c-19 -19 -12 -37 14 -37 18 0 25 5 25 19 0 23 -23 34 -39
18z"/>
<path d="M1173 5643 c-18 -7 -16 -43 2 -43 18 0 31 28 19 39 -5 5 -15 6 -21 4z"/>
<path d="M8664 5635 c-9 -21 3 -45 21 -45 8 0 15 9 15 20 0 11 -7 20 -16 20
-8 0 -12 5 -9 10 3 6 4 10 0 10 -3 0 -8 -7 -11 -15z"/>
<path d="M8937 5644 c-4 -4 -2 -13 5 -21 9 -11 7 -12 -8 -6 -17 6 -17 5 -6
-10 17 -21 44 -10 40 16 -3 21 -19 32 -31 21z"/>
<path d="M9470 5635 c-14 -16 -5 -35 16 -35 15 0 20 35 5 44 -5 3 -14 -1 -21
-9z"/>
<path d="M9756 5633 c-4 -9 -1 -23 7 -30 12 -12 16 -12 26 1 16 19 8 46 -13
46 -7 0 -17 -8 -20 -17z"/>
<path d="M307 5627 c-3 -8 -2 -20 3 -27 11 -18 42 -4 38 17 -4 22 -34 29 -41
10z m20 -12 c0 -8 -4 -12 -9 -9 -5 3 -6 10 -3 15 9 13 12 11 12 -6z"/>
<path d="M853 5624 c-9 -23 19 -38 34 -17 7 9 10 20 7 24 -9 15 -34 10 -41 -7z"/>
<path d="M1415 5630 c-4 -7 -3 -16 3 -22 14 -14 45 -2 40 15 -6 16 -34 21 -43
7z"/>
<path d="M8414 5626 c-9 -24 3 -47 21 -40 18 7 16 45 -2 52 -7 2 -16 -3 -19
-12z"/>
<path d="M10023 5624 c-6 -17 14 -36 32 -31 6 2 11 13 13 25 3 17 -2 22 -18
22 -11 0 -23 -7 -27 -16z m21 -10 c3 -8 2 -12 -4 -9 -6 3 -10 10 -10 16 0 14
7 11 14 -7z"/>
<path d="M946 5373 c-3 -3 -6 -17 -6 -30 0 -20 5 -24 22 -21 29 4 35 34 10 47
-11 6 -22 7 -26 4z m31 -35 c-3 -8 -6 -5 -6 6 -1 11 2 17 5 13 3 -3 4 -12 1
-19z"/>
<path d="M312 5357 c-14 -17 2 -42 22 -34 20 8 20 21 2 36 -10 8 -16 8 -24 -2z"/>
<path d="M594 5355 c-7 -18 3 -35 21 -35 21 0 28 19 15 35 -16 19 -29 19 -36
0z"/>
<path d="M1187 5364 c-16 -16 -7 -44 14 -44 15 0 20 5 17 22 -3 22 -19 33 -31
22z"/>
<path d="M8675 5360 c-3 -5 -1 -19 5 -30 9 -17 14 -19 26 -9 8 6 14 19 13 28
0 12 -2 11 -9 -4 -7 -16 -9 -17 -9 -3 -1 20 -17 32 -26 18z"/>
<path d="M8924 5356 c-8 -21 3 -36 27 -36 15 0 20 6 17 22 -4 27 -35 37 -44
14z"/>
<path d="M9216 5363 c-11 -12 -6 -41 9 -47 9 -3 19 3 25 14 8 15 6 21 -9 29
-10 6 -21 7 -25 4z"/>
<path d="M9461 5356 c-9 -11 -8 -17 5 -31 19 -19 38 -7 32 21 -4 23 -22 28
-37 10z"/>
<path d="M9744 5356 c-8 -22 3 -49 19 -43 6 2 12 14 12 27 0 27 -22 39 -31 16z"/>
<path d="M10030 5341 c0 -19 23 -35 34 -24 14 15 5 43 -14 43 -13 0 -20 -7
-20 -19z"/>
<path d="M8930 5105 c0 -18 5 -25 19 -25 20 0 31 17 24 38 -3 6 -13 12 -24 12
-14 0 -19 -7 -19 -25z"/>
<path d="M8697 5093 c-4 -3 -7 -15 -7 -25 0 -26 24 -17 28 10 3 21 -8 29 -21
15z"/>
<path d="M311 5067 c-11 -15 -6 -47 9 -47 4 0 13 7 20 16 11 12 11 18 -2 30
-13 13 -16 13 -27 1z"/>
<path d="M891 5057 c-9 -24 -6 -37 10 -37 6 0 7 4 4 10 -3 6 1 7 9 4 11 -4 16
0 16 14 0 29 -29 36 -39 9z"/>
<path d="M9233 5073 c-18 -7 -16 -33 3 -33 9 0 12 -5 8 -12 -6 -9 -3 -9 9 1
13 10 14 18 6 32 -5 10 -11 19 -12 18 -1 0 -8 -3 -14 -6z"/>
<path d="M10031 5066 c-16 -19 -7 -46 14 -46 22 0 30 29 13 46 -13 13 -16 13
-27 0z m29 -21 c0 -8 -7 -15 -15 -15 -13 0 -14 3 -3 15 16 18 18 18 18 0z"/>
<path d="M591 5061 c-17 -11 -7 -41 13 -41 22 0 30 20 15 36 -9 8 -19 10 -28
5z"/>
<path d="M1164 5055 c-7 -18 3 -35 21 -35 15 0 24 19 18 38 -6 17 -32 15 -39
-3z"/>
<path d="M9463 5054 c-7 -20 17 -37 34 -23 15 13 6 39 -13 39 -8 0 -17 -7 -21
-16z"/>
<path d="M9740 5050 c0 -11 7 -23 15 -27 19 -7 22 -4 27 22 2 14 -3 21 -19 23
-18 3 -23 -2 -23 -18z"/>
<path d="M1417 5046 c-7 -18 1 -26 25 -26 13 0 18 6 16 17 -4 22 -34 29 -41 9z"/>
<path d="M722 4993 c2 -10 10 -18 18 -18 8 0 16 8 18 18 2 12 -3 17 -18 17
-15 0 -20 -5 -18 -17z"/>
<path d="M9117 4918 c-2 -7 3 -19 12 -26 10 -8 10 -11 2 -6 -10 5 -12 3 -6 -6
6 -10 11 -9 21 4 7 10 10 24 7 32 -6 17 -30 18 -36 2z"/>
<path d="M597 4832 c-2 -4 -3 -23 -3 -42 1 -24 6 -35 16 -35 21 0 26 71 5 78
-8 4 -16 3 -18 -1z"/>
<path d="M881 4791 c-17 -11 -10 -46 9 -46 17 0 26 33 13 46 -4 4 -14 4 -22 0z"/>
<path d="M9235 4780 c-7 -23 1 -40 20 -40 16 0 26 25 19 45 -9 21 -32 19 -39
-5z"/>
<path d="M9751 4791 c-17 -11 -10 -46 9 -46 17 0 26 33 13 46 -4 4 -14 4 -22
0z"/>
<path d="M312 4768 c2 -12 10 -23 18 -23 22 0 19 39 -3 43 -15 3 -18 -1 -15
-20z"/>
<path d="M1088 4784 c-12 -11 4 -34 24 -34 13 0 18 6 16 17 -3 18 -29 29 -40
17z"/>
<path d="M1610 4771 c0 -24 18 -37 31 -24 13 13 1 43 -17 43 -8 0 -14 -9 -14
-19z"/>
<path d="M9007 4784 c-11 -11 5 -34 24 -34 12 0 19 7 19 20 0 19 -28 28 -43
14z"/>
<path d="M9470 4770 c0 -13 7 -20 20 -20 13 0 20 7 20 20 0 13 -7 20 -20 20
-13 0 -20 -7 -20 -20z"/>
<path d="M1233 4683 c-19 -7 -15 -33 5 -33 15 0 15 -2 2 -11 -13 -9 -13 -10 0
-6 17 4 26 35 13 47 -4 4 -14 5 -20 3z"/>
<path d="M1847 4563 c-4 -3 -7 -17 -7 -30 0 -28 35 -33 42 -5 9 33 -14 56 -35
35z"/>
<path d="M5330 4501 c-29 -8 -39 -38 -15 -47 20 -8 34 5 40 34 2 12 3 22 2 21
-1 -1 -13 -4 -27 -8z"/>
<path d="M313 4484 c-7 -18 11 -39 26 -30 17 11 13 46 -4 46 -9 0 -18 -7 -22
-16z"/>
<path d="M591 4491 c-19 -12 -6 -41 19 -41 16 0 21 5 18 22 -3 25 -17 32 -37
19z"/>
<path d="M867 4493 c-4 -3 -7 -15 -7 -25 0 -28 34 -19 38 10 3 21 -16 31 -31
15z"/>
<path d="M1172 4488 c-9 -11 -9 -19 1 -32 11 -15 15 -16 25 -4 9 11 9 19 -1
32 -11 15 -15 16 -25 4z"/>
<path d="M1413 4484 c-7 -18 11 -39 26 -30 17 11 13 46 -4 46 -9 0 -18 -7 -22
-16z"/>
<path d="M1607 4481 c-3 -11 0 -25 7 -30 16 -14 39 3 34 25 -5 26 -34 30 -41
5z"/>
<path d="M2386 4491 c-9 -14 4 -41 19 -41 15 0 28 27 19 41 -3 5 -11 9 -19 9
-8 0 -16 -4 -19 -9z"/>
<path d="M2704 4485 c-4 -9 -2 -21 4 -27 15 -15 44 -1 40 19 -4 23 -36 29 -44
8z"/>
<path d="M2974 4486 c-8 -22 3 -49 19 -43 6 2 12 14 12 27 0 27 -22 39 -31 16z"/>
<path d="M3534 4485 c-4 -9 -2 -21 4 -27 15 -15 44 -1 40 19 -4 23 -36 29 -44
8z"/>
<path d="M3700 4481 c0 -11 4 -22 8 -25 14 -9 35 12 29 28 -9 23 -37 20 -37
-3z"/>
<path d="M3850 4475 c0 -20 4 -26 18 -23 9 2 17 12 17 23 0 11 -8 21 -17 23
-14 3 -18 -3 -18 -23z"/>
<path d="M4194 4485 c-4 -9 -2 -21 4 -27 15 -15 44 -1 40 19 -4 23 -36 29 -44
8z"/>
<path d="M4513 4492 c-7 -4 -11 -17 -11 -28 2 -16 7 -19 25 -16 13 2 23 10 23
17 0 18 -24 35 -37 27z"/>
<path d="M4820 4475 c0 -28 24 -34 34 -9 8 20 -1 34 -20 34 -8 0 -14 -10 -14
-25z"/>
<path d="M5970 4480 c0 -11 7 -23 15 -27 19 -7 22 -4 27 22 2 14 -3 21 -19 23
-18 3 -23 -2 -23 -18z"/>
<path d="M8930 4481 c0 -21 23 -45 33 -34 4 3 7 17 7 30 0 16 -6 23 -20 23
-13 0 -20 -7 -20 -19z"/>
<path d="M9196 4491 c-10 -16 5 -42 23 -39 21 4 21 42 -1 46 -9 2 -19 -1 -22
-7z"/>
<path d="M9457 4487 c-3 -8 -2 -20 3 -27 11 -18 42 -4 38 17 -4 22 -34 29 -41
10z"/>
<path d="M3361 4397 c-15 -19 12 -57 29 -41 12 12 5 54 -9 54 -5 0 -14 -6 -20
-13z"/>
<path d="M5469 4394 c-9 -11 -9 -18 -1 -26 14 -14 42 -3 42 16 0 20 -27 27
-41 10z"/>
<path d="M2224 4389 c-10 -17 23 -46 37 -32 7 7 9 19 6 27 -7 18 -33 21 -43 5z"/>
<path d="M3769 4388 c-7 -25 -5 -40 7 -45 23 -9 40 13 24 32 -11 13 -28 20
-31 13z"/>
<path d="M5173 4364 c-7 -18 11 -39 26 -30 17 11 13 46 -4 46 -9 0 -18 -7 -22
-16z"/>
<path d="M4951 4328 c-5 -13 -6 -28 -4 -35 8 -20 32 -23 42 -5 10 19 -3 62
-19 62 -6 0 -14 -10 -19 -22z"/>
<path d="M9700 4300 c-13 -25 -6 -40 21 -40 16 0 19 6 16 27 -4 34 -22 40 -37
13z m18 -10 c-7 -10 -14 -18 -15 -16 -6 6 9 36 18 36 5 0 4 -9 -3 -20z"/>
<path d="M3456 4303 c-11 -11 -6 -41 7 -46 19 -7 32 4 33 29 0 19 -26 30 -40
17z"/>
<path d="M1420 4279 c0 -14 5 -19 17 -17 26 5 29 38 4 38 -15 0 -21 -6 -21
-21z"/>
<path d="M2674 4226 c-8 -21 13 -46 32 -39 20 8 13 47 -9 51 -9 2 -20 -4 -23
-12z"/>
<path d="M8902 4228 c-15 -15 -16 -38 -1 -38 5 0 8 4 5 8 -3 5 1 9 9 9 8 0 12
-4 9 -9 -3 -4 0 -8 6 -8 14 0 9 42 -5 47 -6 2 -16 -2 -23 -9z"/>
<path d="M3532 4208 c2 -15 10 -23 23 -23 30 0 27 39 -3 43 -20 3 -23 0 -20
-20z m35 -14 c-3 -3 -12 -4 -19 -1 -8 3 -5 6 6 6 11 1 17 -2 13 -5z"/>
<path d="M9226 4221 c-7 -11 3 -41 13 -41 14 0 29 23 24 36 -6 16 -29 19 -37
5z"/>
<path d="M9443 4214 c-3 -8 -1 -20 5 -26 16 -16 42 -2 42 22 0 24 -38 28 -47
4z m32 -22 c-3 -3 -11 0 -18 7 -9 10 -8 11 6 5 10 -3 15 -9 12 -12z"/>
<path d="M854 4175 c-13 -34 23 -48 43 -16 10 16 9 20 -3 25 -24 9 -34 7 -40
-9z"/>
<path d="M1163 4174 c-8 -21 13 -42 28 -27 13 13 5 43 -11 43 -6 0 -13 -7 -17
-16z"/>
<path d="M2384 4175 c-4 -8 -4 -22 0 -30 6 -17 36 -21 36 -4 0 5 4 8 9 5 5 -4
8 1 7 10 -2 15 -23 34 -39 34 -4 0 -10 -7 -13 -15z"/>
<path d="M4011 4181 c-17 -11 -7 -41 13 -41 22 0 30 20 15 36 -9 8 -19 10 -28
5z"/>
<path d="M4207 4183 c-15 -14 -7 -43 12 -43 26 0 36 17 21 35 -14 16 -23 19
-33 8z"/>
<path d="M4476 4181 c-3 -4 1 -17 9 -27 10 -15 16 -16 26 -7 6 6 9 19 6 27 -7
17 -32 22 -41 7z"/>
<path d="M5042 4172 c-5 -9 -7 -23 -5 -29 5 -15 33 -18 33 -4 0 5 3 16 6 24 8
21 -24 30 -34 9z"/>
<path d="M5664 4175 c-7 -18 3 -35 21 -35 21 0 28 19 15 35 -16 19 -29 19 -36
0z"/>
<path d="M597 4165 c-5 -11 0 -15 16 -16 21 0 21 -1 2 -10 l-20 -9 20 3 c12 1
20 10 20 22 0 24 -30 32 -38 10z"/>
<path d="M1566 4171 c-9 -14 4 -41 20 -41 7 0 18 9 23 19 8 15 7 20 -5 25 -22
8 -32 8 -38 -3z"/>
<path d="M1900 4160 c0 -13 7 -20 20 -20 13 0 20 7 20 20 0 13 -7 20 -20 20
-13 0 -20 -7 -20 -20z"/>
<path d="M2110 4161 c0 -15 6 -21 21 -21 25 0 22 33 -4 38 -12 2 -17 -3 -17
-17z"/>
<path d="M2846 4171 c-9 -14 4 -41 19 -41 15 0 28 27 19 41 -3 5 -11 9 -19 9
-8 0 -16 -4 -19 -9z"/>
<path d="M2996 4171 c-10 -16 5 -42 23 -39 21 4 21 42 -1 46 -9 2 -19 -1 -22
-7z"/>
<path d="M4820 4161 c0 -28 21 -37 37 -16 10 15 10 20 0 27 -21 13 -37 9 -37
-11z"/>
<path d="M5248 4157 c-6 -30 27 -34 42 -6 6 10 9 19 8 20 -37 9 -46 7 -50 -14z"/>
<path d="M5937 4166 c-7 -17 18 -40 33 -31 5 3 10 15 10 26 0 23 -35 27 -43 5z"/>
<path d="M2527 4103 c-4 -3 -7 -15 -7 -25 0 -28 34 -19 38 10 3 21 -16 31 -31
15z"/>
<path d="M8697 3999 c3 -11 14 -19 25 -19 27 0 19 35 -8 36 -16 1 -20 -3 -17
-17z"/>
<path d="M915 3940 c-4 -11 -10 -18 -15 -15 -5 3 -12 0 -16 -6 -4 -7 -3 -9 3
-6 6 4 14 0 17 -9 4 -10 2 -13 -6 -8 -7 4 -8 3 -4 -4 10 -17 36 -15 43 4 3 8
1 20 -5 26 -6 6 -8 17 -5 24 3 8 3 14 0 14 -3 0 -9 -9 -12 -20z"/>
<path d="M310 3925 c-15 -17 -5 -48 13 -43 13 5 19 46 7 53 -4 3 -13 -2 -20
-10z"/>
<path d="M592 3928 c-15 -15 -3 -38 19 -38 12 0 19 7 19 19 0 22 -23 34 -38
19z m28 -14 c0 -8 -19 -13 -24 -6 -3 5 1 9 9 9 8 0 15 -2 15 -3z"/>
<path d="M5667 3933 c-4 -3 -7 -17 -7 -30 0 -26 21 -31 40 -8 18 22 -13 58
-33 38z"/>
<path d="M5867 3933 c-11 -10 -8 -41 5 -49 17 -11 40 26 27 43 -13 14 -22 16
-32 6z"/>
<path d="M1164 3915 c-7 -18 3 -35 21 -35 18 0 26 25 12 39 -15 15 -27 14 -33
-4z"/>
<path d="M1916 3921 c-10 -16 5 -41 26 -41 14 0 19 6 16 22 -3 24 -32 36 -42
19z"/>
<path d="M5215 3919 c-4 -6 -5 -12 -2 -15 2 -3 7 2 10 11 7 17 1 20 -8 4z"/>
<path d="M5456 3921 c-3 -4 0 -16 7 -25 12 -16 14 -16 26 -2 7 8 10 20 6 26
-8 12 -32 13 -39 1z"/>
<path d="M9216 3921 c-9 -14 4 -41 19 -41 15 0 28 27 19 41 -3 5 -11 9 -19 9
-8 0 -16 -4 -19 -9z m18 -17 c3 -8 2 -12 -4 -9 -6 3 -10 10 -10 16 0 14 7 11
14 -7z"/>
<path d="M9457 3924 c-4 -4 -7 -16 -7 -26 0 -14 6 -19 23 -16 14 2 22 10 22
23 0 20 -25 32 -38 19z m10 -26 c-3 -8 -6 -5 -6 6 -1 11 2 17 5 13 3 -3 4 -12
1 -19z"/>
<path d="M9743 3919 c-16 -16 -5 -39 19 -39 14 0 19 6 16 22 -4 25 -19 33 -35
17z"/>
<path d="M10034 3915 c-5 -13 -8 -14 -15 -3 -5 8 -9 9 -9 2 0 -18 28 -37 46
-30 18 7 15 37 -3 44 -7 2 -16 -4 -19 -13z"/>
<path d="M1610 3900 c0 -13 7 -20 20 -20 13 0 20 7 20 20 0 13 -7 20 -20 20
-13 0 -20 -7 -20 -20z"/>
<path d="M413 3864 c-7 -18 17 -38 31 -24 11 11 1 40 -14 40 -6 0 -13 -7 -17
-16z m24 -9 c0 -8 -4 -12 -9 -9 -4 3 -8 9 -8 15 0 5 4 9 8 9 5 0 9 -7 9 -15z"/>
<path d="M1432 3838 c-17 -17 -15 -35 5 -42 22 -9 36 7 28 33 -7 24 -16 26
-33 9z m11 -13 c-3 -9 -8 -14 -10 -11 -3 3 -2 9 2 15 9 16 15 13 8 -4z"/>
<path d="M9230 3729 c0 -25 33 -22 38 4 2 12 -3 17 -17 17 -15 0 -21 -6 -21
-21z m25 1 c3 -5 1 -10 -4 -10 -6 0 -11 5 -11 10 0 6 2 10 4 10 3 0 8 -4 11
-10z"/>
<path d="M1187 3654 c-16 -16 -7 -44 14 -44 15 0 20 5 17 22 -3 22 -19 33 -31
22z"/>
<path d="M5653 3644 c-4 -11 1 -22 12 -31 16 -11 21 -11 33 1 9 9 12 22 8 32
-6 16 -8 16 -16 4 -7 -10 -10 -11 -10 -2 0 18 -20 15 -27 -4z"/>
<path d="M9372 3638 c2 -13 10 -23 18 -23 8 0 16 10 18 23 3 17 -2 22 -18 22
-16 0 -21 -5 -18 -22z m25 -3 c0 -8 -4 -12 -9 -9 -4 3 -8 9 -8 15 0 5 4 9 8 9
5 0 9 -7 9 -15z"/>
<path d="M5460 3625 c0 -18 5 -25 19 -25 20 0 31 17 24 38 -3 6 -13 12 -24 12
-14 0 -19 -7 -19 -25z"/>
<path d="M1847 3634 c-4 -4 -7 -16 -7 -26 0 -14 6 -19 23 -16 14 2 22 10 22
23 0 20 -25 32 -38 19z"/>
<path d="M5873 3633 c-7 -3 -13 -16 -13 -29 0 -17 5 -24 20 -24 16 0 20 5 17
25 -4 29 -8 34 -24 28z"/>
<path d="M9753 3633 c-17 -6 -16 -40 1 -46 17 -7 26 1 26 24 0 21 -10 28 -27
22z m13 -23 c0 -12 -4 -16 -9 -11 -5 5 -6 14 -3 20 10 15 12 14 12 -9z"/>
<path d="M10026 3631 c-10 -16 5 -41 25 -41 23 0 26 35 3 44 -20 8 -22 8 -28
-3z"/>
<path d="M304 3615 c-4 -9 -2 -21 3 -26 14 -14 45 1 41 20 -4 22 -37 26 -44 6z
m36 -11 c0 -8 -19 -13 -24 -6 -3 5 1 9 9 9 8 0 15 -2 15 -3z"/>
<path d="M593 3614 c-7 -18 11 -39 26 -30 17 11 13 46 -4 46 -9 0 -18 -7 -22
-16z"/>
<path d="M870 3611 c0 -11 4 -22 8 -25 14 -9 35 12 29 28 -9 23 -37 20 -37 -3z"/>
<path d="M1615 3621 c-8 -15 3 -31 21 -31 9 0 14 7 12 17 -4 20 -24 28 -33 14z"/>
<path d="M8910 3610 c0 -13 7 -20 20 -20 13 0 20 7 20 20 0 13 -7 20 -20 20
-13 0 -20 -7 -20 -20z"/>
<path d="M9462 3518 c2 -12 10 -23 18 -23 22 0 19 39 -3 43 -15 3 -18 -1 -15
-20z m28 8 c0 -3 -4 -8 -10 -11 -5 -3 -10 -1 -10 4 0 6 5 11 10 11 6 0 10 -2
10 -4z"/>
<path d="M1067 3523 c-15 -14 -7 -43 12 -43 26 0 36 17 21 35 -14 16 -23 19
-33 8z"/>
<path d="M8706 3361 c-8 -12 3 -41 16 -41 5 0 7 4 4 8 -3 5 1 9 9 9 8 0 12 -4
9 -9 -3 -4 0 -8 6 -8 6 0 10 10 8 23 -3 23 -41 37 -52 18z"/>
<path d="M594 3346 c-7 -19 3 -36 22 -36 10 0 14 8 12 22 -4 26 -26 36 -34 14z"/>
<path d="M862 3338 c5 -34 38 -37 38 -4 0 20 -5 26 -21 26 -15 0 -20 -5 -17
-22z"/>
<path d="M1433 3353 c-22 -8 -15 -43 7 -43 13 0 20 7 20 19 0 22 -9 30 -27 24z"/>
<path d="M8940 3340 c0 -24 29 -38 40 -20 12 19 1 40 -21 40 -12 0 -19 -7 -19
-20z"/>
<path d="M9192 3347 c-15 -17 1 -42 23 -33 18 6 17 37 -1 43 -6 2 -16 -2 -22
-10z"/>
<path d="M1270 3170 c0 -35 25 -42 35 -10 8 24 -1 40 -21 40 -9 0 -14 -11 -14
-30z"/>
<path d="M9062 3178 c2 -13 10 -23 18 -23 8 0 16 10 18 23 3 17 -2 22 -18 22
-16 0 -21 -5 -18 -22z"/>
<path d="M8931 3106 c-16 -19 -7 -46 14 -46 22 0 30 29 13 46 -13 13 -16 13
-27 0z"/>
<path d="M967 3094 c-16 -16 -7 -44 14 -44 15 0 20 5 17 22 -3 22 -19 33 -31
22z"/>
<path d="M1170 3075 c-14 -16 -5 -35 16 -35 15 0 20 35 5 44 -5 3 -14 -1 -21
-9z"/>
<path d="M9200 3070 c0 -13 7 -20 20 -20 13 0 20 7 20 20 0 13 -7 20 -20 20
-13 0 -20 -7 -20 -20z m30 0 c0 -5 -5 -10 -11 -10 -5 0 -7 5 -4 10 3 6 8 10
11 10 2 0 4 -4 4 -10z"/>
<path d="M1420 3051 c0 -15 6 -21 21 -21 25 0 22 33 -4 38 -12 2 -17 -3 -17
-17z"/>
<path d="M9380 3005 c0 -18 5 -25 20 -25 15 0 20 7 20 25 0 18 -5 25 -20 25
-15 0 -20 -7 -20 -25z m30 0 c0 -8 -4 -15 -8 -15 -5 0 -9 7 -9 15 0 8 4 15 9
15 4 0 8 -7 8 -15z"/>
<path d="M9853 3009 c-16 -16 -5 -39 17 -39 20 0 30 17 22 38 -5 15 -24 16
-39 1z m17 -9 c-12 -8 -12 -10 -1 -10 8 0 12 -3 8 -6 -9 -9 -28 6 -22 17 4 5
12 9 18 9 7 0 6 -4 -3 -10z"/>
<path d="M9615 2940 c3 -6 -1 -7 -9 -4 -20 8 -21 -19 -2 -35 12 -10 17 -9 24
6 10 20 5 43 -9 43 -6 0 -7 -4 -4 -10z"/>
<path d="M9680 2830 c0 -24 29 -38 40 -20 12 19 1 40 -21 40 -12 0 -19 -7 -19
-20z"/>
<path d="M601 2790 c-17 -10 -7 -40 13 -40 7 0 16 6 19 14 8 19 -15 37 -32 26z"/>
<path d="M893 2793 c-7 -3 -13 -13 -13 -24 0 -23 35 -26 43 -5 7 17 -13 35
-30 29z"/>
<path d="M1423 2784 c-7 -18 11 -39 26 -30 17 11 13 46 -4 46 -9 0 -18 -7 -22
-16z"/>
<path d="M8930 2790 c-18 -11 -4 -42 17 -38 10 2 19 10 21 19 4 19 -19 31 -38
19z"/>
<path d="M9213 2793 c-22 -8 -15 -43 7 -43 13 0 20 7 20 19 0 22 -9 30 -27 24z"/>
<path d="M9457 2794 c-16 -16 -7 -44 14 -44 15 0 20 5 17 22 -3 22 -19 33 -31
22z"/>
<path d="M10034 2786 c-7 -19 3 -36 22 -36 10 0 14 8 12 22 -4 26 -26 36 -34
14z"/>
<path d="M310 2770 c0 -13 7 -20 20 -20 13 0 20 7 20 20 0 13 -7 20 -20 20
-13 0 -20 -7 -20 -20z"/>
<path d="M747 2603 c-14 -13 -6 -33 13 -33 13 0 20 7 20 20 0 19 -20 27 -33
13z"/>
<path d="M1134 2545 c-9 -23 0 -50 19 -53 22 -4 35 27 16 39 -12 7 -12 9 0 9
18 0 6 13 -15 16 -8 1 -18 -4 -20 -11z m36 -31 c0 -8 -19 -13 -24 -6 -3 5 1 9
9 9 8 0 15 -2 15 -3z"/>
<path d="M311 2506 c-14 -16 -4 -46 14 -46 12 0 25 21 25 40 0 15 -28 19 -39
6z"/>
<path d="M871 2507 c-18 -18 -13 -27 14 -27 15 0 25 6 25 14 0 19 -25 27 -39
13z m23 -5 c3 -5 -1 -9 -9 -9 -8 0 -12 4 -9 9 3 4 7 8 9 8 2 0 6 -4 9 -8z"/>
<path d="M8662 2508 c-13 -13 -4 -38 14 -38 15 0 19 35 6 44 -5 3 -14 0 -20
-6z"/>
<path d="M9454 2506 c-7 -19 3 -36 22 -36 10 0 14 8 12 22 -4 26 -26 36 -34
14z m23 -11 c0 -8 -4 -12 -9 -9 -5 3 -6 10 -3 15 9 13 12 11 12 -6z"/>
<path d="M9751 2511 c-8 -5 -11 -16 -6 -30 8 -25 18 -27 35 -5 11 12 11 18 -1
29 -9 9 -19 11 -28 6z m23 -9 c3 -5 -1 -9 -9 -9 -8 0 -12 4 -9 9 3 4 7 8 9 8
2 0 6 -4 9 -8z"/>
<path d="M592 2493 c5 -26 38 -29 38 -4 0 15 -6 21 -21 21 -14 0 -19 -5 -17
-17z"/>
<path d="M9012 2463 c5 -26 38 -29 38 -4 0 15 -6 21 -21 21 -14 0 -19 -5 -17
-17z"/>
<path d="M878 2463 c7 -3 16 -2 19 1 4 3 -2 6 -13 5 -11 0 -14 -3 -6 -6z"/>
<path d="M9166 2411 c-8 -13 20 -45 32 -37 20 12 14 46 -7 46 -11 0 -22 -4
-25 -9z m31 -16 c0 -8 -4 -12 -9 -9 -5 3 -6 10 -3 15 9 13 12 11 12 -6z"/>
<path d="M907 2246 c-7 -17 18 -40 33 -31 15 9 12 32 -6 39 -21 8 -21 8 -27
-8z m20 -11 c0 -8 -4 -12 -9 -9 -5 3 -6 10 -3 15 9 13 12 11 12 -6z"/>
<path d="M1433 2249 c-14 -14 -6 -39 12 -39 21 0 26 15 12 34 -9 13 -15 14
-24 5z"/>
<path d="M8936 2245 c-8 -21 1 -35 20 -35 10 0 14 8 12 22 -4 27 -23 34 -32
13z m21 -10 c0 -8 -4 -12 -9 -9 -5 3 -6 10 -3 15 9 13 12 11 12 -6z"/>
<path d="M1177 2244 c-16 -16 -7 -44 14 -44 15 0 20 5 17 22 -3 22 -19 33 -31
22z"/>
<path d="M307 2227 c-3 -8 -2 -20 3 -27 11 -18 42 -4 38 17 -4 22 -34 29 -41
10z"/>
<path d="M9444 2229 c-8 -14 21 -43 35 -35 19 12 13 46 -8 46 -11 0 -23 -5
-27 -11z"/>
<path d="M10033 2224 c-8 -21 13 -42 28 -27 13 13 5 43 -11 43 -6 0 -13 -7
-17 -16z"/>
<path d="M747 2164 c-16 -16 -7 -44 14 -44 15 0 20 5 17 22 -3 22 -19 33 -31
22z"/>
<path d="M9194 2126 c-7 -19 3 -36 22 -36 10 0 14 8 12 22 -4 26 -26 36 -34
14z"/>
<path d="M602 2027 c-9 -10 -8 -18 3 -33 13 -16 16 -17 25 -4 21 31 -5 65 -28
37z"/>
<path d="M9860 1961 c0 -21 26 -36 36 -20 9 15 -3 39 -21 39 -8 0 -15 -9 -15
-19z"/>
<path d="M310 1935 c-15 -19 3 -47 26 -38 18 7 18 27 0 42 -10 9 -16 8 -26 -4z
m22 -14 c8 11 9 11 6 1 -4 -16 -22 -18 -24 -2 -2 7 -1 6 3 -1 4 -8 8 -7 15 2z"/>
<path d="M1427 1937 c-3 -8 -2 -20 3 -27 11 -18 42 -4 38 17 -4 22 -34 29 -41
10z"/>
<path d="M8386 1934 c-21 -20 -16 -39 10 -39 21 0 32 31 16 47 -6 6 -15 3 -26
-8z"/>
<path d="M9444 1935 c-7 -18 3 -35 21 -35 21 0 28 19 15 35 -16 19 -29 19 -36
0z m31 -16 c-4 -5 -12 -9 -18 -8 -9 0 -8 2 1 6 6 2 9 10 6 15 -4 7 -2 8 5 4 6
-4 9 -12 6 -17z"/>
<path d="M10030 1940 c-18 -11 -4 -42 17 -38 10 2 19 10 21 19 4 19 -19 31
-38 19z m30 -16 c0 -8 -19 -13 -24 -6 -3 5 1 9 9 9 8 0 15 -2 15 -3z"/>
<path d="M890 1921 c0 -19 23 -35 34 -24 14 15 5 43 -14 43 -13 0 -20 -7 -20
-19z"/>
<path d="M1160 1926 c0 -24 26 -38 40 -22 6 9 9 20 5 26 -9 15 -45 12 -45 -4z"/>
<path d="M8654 1929 c-3 -6 0 -17 7 -25 18 -17 44 -2 36 20 -7 18 -33 21 -43
5z"/>
<path d="M9220 1920 c0 -13 7 -20 20 -20 13 0 20 7 20 20 0 13 -7 20 -20 20
-13 0 -20 -7 -20 -20z m30 0 c0 -5 -4 -10 -10 -10 -5 0 -10 5 -10 10 0 6 5 10
10 10 6 0 10 -4 10 -10z"/>
<path d="M9665 1910 c-8 -13 3 -50 15 -50 13 0 28 32 23 48 -6 15 -29 16 -38
2z"/>
<path d="M8122 1898 c-14 -14 -16 -28 -3 -28 5 0 11 9 14 20 6 23 5 24 -11 8z"/>
<path d="M8146 1883 c-6 -14 -5 -15 5 -6 7 7 10 15 7 18 -3 3 -9 -2 -12 -12z"/>
<path d="M9770 1813 c0 -5 6 -15 13 -22 10 -11 9 -12 -3 -6 -12 7 -13 6 -2 -6
11 -12 14 -12 22 1 5 8 8 20 7 25 -4 13 -37 20 -37 8z"/>
<path d="M8942 1758 c5 -34 38 -37 38 -4 0 20 -5 26 -21 26 -15 0 -20 -5 -17
-22z"/>
<path d="M9592 1677 c-16 -19 11 -58 28 -41 14 14 10 46 -6 51 -6 2 -16 -2
-22 -10z m20 -4 c-10 -4 -10 -8 -1 -19 7 -8 7 -14 1 -14 -12 0 -23 26 -15 34
4 3 11 6 17 5 6 0 5 -3 -2 -6z"/>
<path d="M870 1670 c-13 -8 -13 -12 3 -27 15 -15 19 -16 26 -4 9 14 4 41 -8
41 -3 0 -13 -5 -21 -10z"/>
<path d="M8424 1666 c-7 -19 3 -36 22 -36 10 0 14 8 12 22 -4 26 -26 36 -34
14z"/>
<path d="M7994 1655 c-7 -18 3 -35 21 -35 15 0 28 27 19 41 -8 14 -34 11 -40
-6z m23 -10 c0 -8 -4 -15 -9 -15 -10 0 -11 14 -1 23 9 10 10 9 10 -8z"/>
<path d="M9014 1655 c-7 -18 3 -35 21 -35 18 0 26 25 12 39 -15 15 -27 14 -33
-4z"/>
<path d="M1362 1633 c5 -26 38 -29 38 -4 0 15 -6 21 -21 21 -14 0 -19 -5 -17
-17z"/>
<path d="M311 1380 c-8 -4 -10 -16 -6 -29 7 -23 20 -27 30 -11 4 6 10 8 15 5
4 -3 6 4 3 14 -6 23 -25 32 -42 21z m25 -12 c5 -7 3 -8 -6 -3 -10 6 -12 4 -6
-11 5 -14 4 -16 -5 -7 -6 6 -8 16 -5 22 9 14 13 14 22 -1z"/>
<path d="M864 1376 c-7 -19 3 -36 22 -36 10 0 14 8 12 22 -4 26 -26 36 -34 14z"/>
<path d="M1183 1374 c-8 -21 13 -42 28 -27 13 13 5 43 -11 43 -6 0 -13 -7 -17
-16z"/>
<path d="M8153 1383 c-22 -8 -15 -43 7 -43 13 0 20 7 20 19 0 22 -9 30 -27 24z"/>
<path d="M8384 1375 c-7 -18 3 -35 22 -35 20 0 30 30 13 41 -20 12 -29 11 -35
-6z"/>
<path d="M8937 1383 c-13 -12 -7 -41 8 -47 18 -6 30 16 21 39 -6 16 -18 19
-29 8z"/>
<path d="M590 1361 c0 -26 27 -34 39 -12 12 21 5 31 -21 31 -11 0 -18 -7 -18
-19z"/>
<path d="M1417 1366 c-3 -8 1 -20 9 -27 17 -14 21 -11 26 16 4 23 -27 33 -35
11z"/>
<path d="M7834 1365 c-3 -8 -3 -19 1 -25 8 -13 35 -13 35 0 0 5 -8 7 -17 4
-10 -3 -7 1 6 9 20 12 21 15 6 20 -23 9 -25 9 -31 -8z"/>
<path d="M8654 1369 c-3 -6 0 -17 7 -25 18 -17 44 -2 36 20 -7 18 -33 21 -43
5z"/>
<path d="M9185 1370 c-9 -15 4 -30 26 -30 12 0 19 7 19 20 0 21 -33 29 -45 10z"/>
<path d="M9764 1365 c-7 -18 3 -35 21 -35 15 0 28 27 19 41 -8 14 -34 11 -40
-6z"/>
<path d="M10027 1374 c-11 -12 13 -43 28 -38 22 9 19 44 -3 44 -10 0 -22 -3
-25 -6z"/>
<path d="M5957 1267 c-3 -8 -1 -20 4 -28 8 -12 12 -11 24 5 8 10 12 23 9 27
-8 14 -31 11 -37 -4z"/>
<path d="M1073 1244 c-8 -21 13 -42 28 -27 13 13 5 43 -11 43 -6 0 -13 -7 -17
-16z"/>
<path d="M2667 1254 c-16 -16 -7 -44 14 -44 15 0 20 5 17 22 -3 22 -19 33 -31
22z"/>
<path d="M8003 1244 c-8 -21 13 -42 28 -27 13 13 5 43 -11 43 -6 0 -13 -7 -17
-16z"/>
<path d="M9375 1198 c-8 -20 1 -38 20 -38 18 0 28 31 14 44 -9 8 -10 8 -5 -1
4 -7 3 -13 -3 -13 -5 0 -11 6 -14 13 -3 8 -7 7 -12 -5z"/>
<path d="M1203 1113 c-22 -8 -15 -43 7 -43 13 0 20 7 20 19 0 22 -9 30 -27 24z"/>
<path d="M4212 1107 c-14 -17 -6 -47 13 -47 19 0 25 26 11 45 -10 15 -14 15
-24 2z"/>
<path d="M7843 1113 c-13 -5 -18 -35 -7 -46 11 -11 34 5 34 23 0 22 -10 29
-27 23z"/>
<path d="M306 1101 c-10 -16 5 -42 23 -39 21 4 21 42 -1 46 -9 2 -19 -1 -22
-7z"/>
<path d="M593 1094 c-8 -21 13 -42 28 -27 13 13 5 43 -11 43 -6 0 -13 -7 -17
-16z"/>
<path d="M874 1095 c-7 -18 3 -35 22 -35 20 0 17 30 -3 31 -15 0 -15 2 2 9 18
8 18 9 2 9 -10 1 -20 -6 -23 -14z"/>
<path d="M1861 1096 c-9 -10 -8 -16 4 -26 19 -16 41 1 32 24 -8 20 -21 20 -36
2z"/>
<path d="M2397 1104 c-15 -15 -7 -45 11 -42 9 2 17 12 17 22 0 20 -16 31 -28
20z"/>
<path d="M2987 1103 c-11 -10 -8 -25 3 -18 6 3 10 -1 10 -9 0 -19 26 -21 32
-3 11 28 -24 52 -45 30z"/>
<path d="M3284 1095 c-7 -18 3 -35 21 -35 18 0 26 25 12 39 -15 15 -27 14 -33
-4z"/>
<path d="M3694 1095 c-7 -18 3 -35 21 -35 18 0 26 25 12 39 -15 15 -27 14 -33
-4z"/>
<path d="M4012 1101 c-15 -9 -5 -41 13 -41 8 0 17 5 21 11 9 15 -18 40 -34 30z"/>
<path d="M4544 1095 c-7 -18 3 -35 21 -35 15 0 24 19 18 38 -6 17 -32 15 -39
-3z"/>
<path d="M4850 1085 c0 -20 4 -26 18 -23 9 2 17 12 17 23 0 11 -8 21 -17 23
-14 3 -18 -3 -18 -23z"/>
<path d="M4971 1101 c-12 -8 -12 -12 -2 -25 18 -22 38 -20 44 3 8 31 -12 41
-42 22z m24 -29 c-3 -3 -11 0 -18 7 -9 10 -8 11 6 5 10 -3 15 -9 12 -12z"/>
<path d="M5234 1095 c-7 -18 3 -35 22 -35 8 0 14 10 14 25 0 27 -27 35 -36 10z"/>
<path d="M5472 1088 c2 -12 10 -23 18 -23 22 0 19 39 -3 43 -15 3 -18 -1 -15
-20z"/>
<path d="M5664 1095 c-7 -18 3 -35 22 -35 8 0 14 10 14 25 0 27 -27 35 -36 10z"/>
<path d="M5964 1095 c-7 -18 3 -35 21 -35 21 0 28 19 15 35 -16 19 -29 19 -36
0z"/>
<path d="M6264 1095 c-7 -18 3 -35 21 -35 15 0 24 19 18 38 -6 17 -32 15 -39
-3z"/>
<path d="M6544 1095 c-7 -18 3 -35 21 -35 18 0 26 15 19 34 -8 20 -33 21 -40
1z"/>
<path d="M7224 1095 c-4 -9 -2 -21 4 -27 15 -15 44 -1 40 19 -4 23 -36 29 -44
8z"/>
<path d="M8101 1101 c-19 -12 -6 -43 16 -39 10 2 18 12 18 22 0 22 -14 29 -34
17z m16 -16 c0 -8 -4 -12 -9 -9 -5 3 -6 10 -3 15 9 13 12 11 12 -6z"/>
<path d="M8416 1101 c-10 -16 6 -42 23 -39 9 2 17 13 19 26 3 16 -2 22 -17 22
-11 0 -22 -4 -25 -9z"/>
<path d="M8667 1104 c-12 -13 -7 -24 11 -24 15 0 15 -2 2 -11 -12 -8 -11 -10
5 -7 12 2 20 11 20 23 0 20 -25 32 -38 19z"/>
<path d="M9224 1095 c-7 -18 3 -35 21 -35 18 0 26 25 12 39 -15 15 -27 14 -33
-4z"/>
<path d="M9773 1094 c-8 -22 18 -37 36 -20 7 8 10 19 7 25 -10 16 -36 13 -43
-5z"/>
<path d="M10036 1101 c-9 -14 5 -42 18 -38 15 5 14 39 -1 44 -6 2 -14 0 -17
-6z"/>
<path d="M9444 1088 c-3 -5 -2 -14 4 -20 13 -13 45 -2 40 14 -5 15 -36 19 -44
6z m33 -14 c-3 -3 -12 -4 -19 -1 -8 3 -5 6 6 6 11 1 17 -2 13 -5z"/>
<path d="M7687 1014 c-16 -16 -7 -44 14 -44 15 0 20 5 17 22 -3 22 -19 33 -31
22z m20 -19 c0 -8 -4 -15 -9 -15 -10 0 -11 14 -1 23 9 10 10 9 10 -8z"/>
<path d="M897 1003 c-14 -13 -6 -33 13 -33 13 0 20 7 20 20 0 19 -20 27 -33
13z m23 -13 c0 -5 -5 -10 -11 -10 -5 0 -7 5 -4 10 3 6 8 10 11 10 2 0 4 -4 4
-10z"/>
<path d="M4074 926 c-7 -19 3 -36 22 -36 10 0 14 8 12 22 -4 26 -26 36 -34 14z"/>
<path d="M9675 930 c-11 -17 5 -51 23 -48 23 4 23 52 0 56 -9 2 -19 -2 -23 -8z
m35 -26 c0 -8 -19 -13 -24 -6 -3 5 1 9 9 9 8 0 15 -2 15 -3z"/>
<path d="M3540 910 c-9 -16 -8 -22 5 -26 21 -9 37 8 29 29 -8 23 -21 21 -34
-3z"/>
<path d="M4790 910 c0 -25 29 -38 41 -19 15 25 10 39 -16 39 -18 0 -25 -5 -25
-20z m37 4 c-3 -3 -12 -4 -19 -1 -8 3 -5 6 6 6 11 1 17 -2 13 -5z"/>
<path d="M6953 914 c-7 -18 11 -39 26 -30 17 11 13 46 -4 46 -9 0 -18 -7 -22
-16z"/>
<path d="M1424 815 c-4 -8 -3 -23 0 -32 6 -15 8 -15 22 -2 8 9 12 23 8 32 -8
21 -23 22 -30 2z"/>
<path d="M7833 823 c-18 -6 -16 -40 1 -46 8 -3 20 1 27 9 10 12 9 18 -2 28 -8
8 -20 12 -26 9z"/>
<path d="M9516 821 c-9 -14 1 -45 15 -49 11 -3 11 -1 -1 8 -13 10 -12 11 5 7
15 -3 21 1 22 13 2 18 -33 35 -41 21z"/>
<path d="M304 809 c-8 -14 21 -43 35 -35 19 12 13 46 -8 46 -11 0 -23 -5 -27
-11z m20 -15 c3 -8 2 -12 -4 -9 -6 3 -10 10 -10 16 0 14 7 11 14 -7z"/>
<path d="M593 812 c-10 -6 -10 -12 1 -28 11 -15 17 -16 27 -7 6 6 9 19 6 27
-7 18 -16 20 -34 8z"/>
<path d="M884 809 c-10 -17 23 -46 37 -32 7 7 9 19 6 27 -7 18 -33 21 -43 5z
m20 -15 c3 -8 2 -12 -4 -9 -6 3 -10 10 -10 16 0 14 7 11 14 -7z"/>
<path d="M1164 809 c-10 -17 23 -46 37 -32 7 7 9 19 6 27 -7 18 -33 21 -43 5z"/>
<path d="M1623 804 c-8 -21 13 -42 28 -27 13 13 5 43 -11 43 -6 0 -13 -7 -17
-16z"/>
<path d="M1857 806 c-7 -17 18 -40 33 -31 6 3 8 11 4 16 -3 5 -10 6 -16 3 -7
-4 -8 -2 -4 4 4 6 14 8 23 5 11 -4 14 -3 9 5 -10 17 -43 15 -49 -2z"/>
<path d="M2082 798 c2 -12 10 -23 18 -23 22 0 19 39 -3 43 -15 3 -18 -1 -15
-20z"/>
<path d="M2264 805 c-7 -18 3 -35 21 -35 15 0 28 27 19 41 -8 14 -34 11 -40
-6z"/>
<path d="M2533 804 c-8 -21 13 -42 28 -27 13 13 5 43 -11 43 -6 0 -13 -7 -17
-16z"/>
<path d="M2994 805 c-4 -9 -2 -21 4 -27 15 -15 44 -1 40 19 -4 23 -36 29 -44
8z"/>
<path d="M3264 809 c-10 -17 23 -46 37 -32 7 7 9 19 6 27 -7 18 -33 21 -43 5z"/>
<path d="M3694 805 c-4 -10 -1 -21 7 -26 20 -12 34 -5 34 17 0 24 -33 31 -41
9z m31 -23 c-3 -3 -11 0 -18 7 -9 10 -8 11 6 5 10 -3 15 -9 12 -12z"/>
<path d="M3933 804 c-3 -8 0 -21 6 -27 10 -9 16 -8 26 7 8 10 12 23 9 27 -9
15 -34 10 -41 -7z"/>
<path d="M4544 809 c-8 -14 21 -43 35 -35 19 12 13 46 -8 46 -11 0 -23 -5 -27
-11z"/>
<path d="M4953 804 c-3 -8 0 -21 6 -27 10 -9 16 -8 26 7 8 10 12 23 9 27 -9
15 -34 10 -41 -7z m24 -9 c0 -8 -4 -12 -9 -9 -5 3 -6 10 -3 15 9 13 12 11 12
-6z"/>
<path d="M5234 809 c-10 -17 23 -46 37 -32 7 7 9 19 6 27 -7 18 -33 21 -43 5z"/>
<path d="M5673 804 c-3 -8 0 -21 6 -27 10 -9 16 -8 26 7 8 10 12 23 9 27 -9
15 -34 10 -41 -7z"/>
<path d="M5980 800 c0 -16 4 -20 16 -16 9 4 13 2 8 -5 -4 -7 -1 -10 7 -7 23 8
17 43 -8 46 -18 3 -23 -2 -23 -18z"/>
<path d="M6262 798 c2 -12 10 -23 18 -23 22 0 19 39 -3 43 -15 3 -18 -1 -15
-20z"/>
<path d="M6543 804 c-8 -22 18 -37 36 -20 7 8 10 19 7 25 -10 16 -36 13 -43
-5z"/>
<path d="M6813 804 c-8 -21 13 -42 28 -27 13 13 5 43 -11 43 -6 0 -13 -7 -17
-16z"/>
<path d="M7060 805 c-10 -11 -10 -19 -2 -27 15 -15 44 -2 40 19 -4 23 -22 27
-38 8z"/>
<path d="M7233 804 c-7 -18 11 -39 26 -30 17 11 13 46 -4 46 -9 0 -18 -7 -22
-16z"/>
<path d="M7446 811 c-9 -14 4 -41 20 -41 15 0 37 34 27 44 -9 9 -41 7 -47 -3z
m25 -8 c-11 -5 -11 -7 0 -15 12 -8 12 -9 0 -6 -22 6 -25 28 -4 27 12 0 14 -2
4 -6z"/>
<path d="M8384 809 c-8 -14 21 -43 35 -35 19 12 13 46 -8 46 -11 0 -23 -5 -27
-11z"/>
<path d="M8654 809 c-10 -17 23 -46 37 -32 7 7 9 19 6 27 -7 18 -33 21 -43 5z
m29 -20 c-8 -8 -13 -7 -18 2 -5 8 -4 10 3 5 7 -4 12 -2 12 5 0 7 3 9 7 6 4 -4
2 -12 -4 -18z"/>
<path d="M8933 804 c-3 -8 -1 -20 6 -27 14 -14 47 15 37 32 -10 16 -36 13 -43
-5z"/>
<path d="M9200 801 c0 -26 17 -36 35 -21 18 15 8 40 -16 40 -12 0 -19 -7 -19
-19z"/>
<path d="M9777 806 c-8 -20 20 -43 35 -28 14 14 3 42 -16 42 -7 0 -16 -6 -19
-14z"/>
<path d="M10030 801 c0 -21 26 -36 36 -20 9 15 -3 39 -21 39 -8 0 -15 -9 -15
-19z"/>
<path d="M8000 790 c-14 -25 4 -62 25 -54 19 8 19 28 0 47 -11 12 -12 17 -2
20 9 4 9 6 0 6 -7 1 -17 -8 -23 -19z"/>
<path d="M7691 696 c-15 -18 -4 -46 18 -46 24 0 29 7 23 35 -5 28 -23 32 -41
11z m29 0 c0 -2 -7 -7 -16 -10 -8 -3 -12 -2 -9 4 6 10 25 14 25 6z"/>
<path d="M1380 660 c0 -23 26 -38 41 -23 14 14 0 43 -22 43 -12 0 -19 -7 -19
-20z m26 1 c-4 -5 -1 -12 4 -14 6 -3 5 -4 -2 -3 -15 3 -23 26 -8 26 6 0 9 -4
6 -9z"/>
<path d="M3393 673 c-19 -7 -15 -33 5 -34 15 0 14 -2 -3 -10 -20 -9 -20 -9 0
-6 21 2 33 34 18 47 -4 4 -14 5 -20 3z"/>
<path d="M9667 666 c-8 -20 20 -43 35 -28 14 14 3 42 -16 42 -7 0 -16 -6 -19
-14z m24 -19 c-10 -9 -11 -8 -5 6 3 10 9 15 12 12 3 -3 0 -11 -7 -18z"/>
<path d="M2183 654 c-8 -21 13 -42 28 -27 13 13 5 43 -11 43 -6 0 -13 -7 -17
-16z m22 -14 c3 -5 1 -10 -4 -10 -6 0 -11 5 -11 10 0 6 2 10 4 10 3 0 8 -4 11
-10z"/>
<path d="M8220 635 c0 -29 15 -33 29 -6 11 20 5 31 -16 31 -7 0 -13 -11 -13
-25z"/>
<path d="M6952 561 c-18 -11 -11 -45 9 -49 21 -4 31 22 16 42 -8 10 -17 13
-25 7z"/>
<path d="M2552 521 c-19 -11 -11 -45 11 -49 9 -2 20 4 23 13 9 21 -16 47 -34
36z m23 -31 c-3 -5 -12 -10 -18 -10 -7 0 -6 4 3 10 19 12 23 12 15 0z"/>
<path d="M3530 515 c0 -8 8 -15 18 -15 14 0 15 -2 2 -10 -13 -8 -13 -10 1 -10
18 0 29 18 22 38 -6 17 -43 15 -43 -3z"/>
<path d="M307 507 c-3 -8 -2 -20 3 -27 11 -18 42 -4 38 17 -4 22 -34 29 -41
10z m33 -6 c0 -6 -4 -12 -8 -15 -5 -3 -9 1 -9 9 0 8 4 15 9 15 4 0 8 -4 8 -9z"/>
<path d="M583 504 c-3 -8 -1 -20 5 -26 14 -14 42 -3 42 18 0 10 -5 14 -16 10
-8 -3 -12 -2 -9 4 3 6 1 10 -5 10 -6 0 -13 -7 -17 -16z"/>
<path d="M884 509 c-10 -17 23 -46 37 -32 7 7 9 19 6 27 -7 18 -33 21 -43 5z
m31 -27 c-3 -3 -11 0 -18 7 -9 10 -8 11 6 5 10 -3 15 -9 12 -12z"/>
<path d="M1576 511 c-10 -16 5 -42 23 -39 21 4 21 42 -1 46 -9 2 -19 -1 -22
-7z"/>
<path d="M1864 505 c-4 -9 -2 -21 4 -27 15 -15 44 -1 40 19 -4 23 -36 29 -44
8z"/>
<path d="M2094 505 c-7 -18 3 -35 22 -35 20 0 30 30 13 41 -20 12 -29 11 -35
-6z m31 -15 c-3 -5 -12 -10 -18 -10 -7 0 -6 4 3 10 19 12 23 12 15 0z"/>
<path d="M2314 505 c-7 -18 3 -35 21 -35 15 0 28 27 19 41 -8 14 -34 11 -40
-6z"/>
<path d="M2734 505 c-4 -9 -2 -21 4 -27 15 -15 44 -1 40 19 -4 23 -36 29 -44
8z m28 -4 c8 11 9 11 6 1 -4 -16 -22 -18 -24 -2 -2 7 -1 6 3 -1 4 -8 8 -7 15
2z"/>
<path d="M2984 505 c-4 -9 -2 -21 4 -27 15 -15 44 -1 40 19 -4 23 -36 29 -44
8z"/>
<path d="M3292 498 c2 -12 10 -23 18 -23 22 0 19 39 -3 43 -15 3 -18 -1 -15
-20z"/>
<path d="M3696 511 c-10 -16 5 -42 23 -39 21 4 21 42 -1 46 -9 2 -19 -1 -22
-7z"/>
<path d="M3993 504 c-8 -21 13 -42 28 -27 13 13 5 43 -11 43 -6 0 -13 -7 -17
-16z"/>
<path d="M4283 504 c-8 -21 13 -42 28 -27 13 13 5 43 -11 43 -6 0 -13 -7 -17
-16z"/>
<path d="M4554 506 c-7 -19 3 -36 22 -36 10 0 14 8 12 22 -4 26 -26 36 -34 14z"/>
<path d="M4814 505 c-4 -9 -2 -21 4 -27 15 -15 44 -1 40 19 -4 23 -36 29 -44
8z"/>
<path d="M5238 513 c-9 -17 -2 -38 12 -38 18 0 20 37 3 42 -6 2 -13 0 -15 -4z"/>
<path d="M5661 506 c-17 -20 13 -43 34 -26 12 10 13 16 4 26 -6 8 -15 14 -19
14 -4 0 -13 -6 -19 -14z"/>
<path d="M6103 504 c-8 -21 13 -42 28 -27 13 13 5 43 -11 43 -6 0 -13 -7 -17
-16z"/>
<path d="M6374 506 c-7 -19 3 -36 22 -36 10 0 14 8 12 22 -4 26 -26 36 -34 14z"/>
<path d="M6743 504 c-5 -14 11 -33 28 -34 10 0 20 31 13 41 -9 15 -34 10 -41
-7z m24 -9 c0 -8 -4 -12 -9 -9 -5 3 -6 10 -3 15 9 13 12 11 12 -6z"/>
<path d="M7228 514 c-12 -11 4 -34 24 -34 13 0 18 6 16 17 -3 18 -29 29 -40
17z"/>
<path d="M7564 505 c-4 -9 -2 -21 4 -27 15 -15 44 -1 40 19 -4 23 -36 29 -44
8z m23 -10 c0 -8 -4 -12 -9 -9 -5 3 -6 10 -3 15 9 13 12 11 12 -6z"/>
<path d="M7826 511 c-10 -16 5 -42 23 -39 21 4 21 42 -1 46 -9 2 -19 -1 -22
-7z"/>
<path d="M8094 505 c-7 -18 3 -35 20 -35 14 0 28 35 18 44 -10 11 -33 6 -38
-9z"/>
<path d="M8384 505 c-4 -9 -2 -21 4 -27 15 -15 44 -1 40 19 -4 23 -36 29 -44
8z"/>
<path d="M8684 511 c5 -7 1 -9 -8 -5 -18 7 -20 -4 -7 -25 12 -18 43 -6 39 16
-2 9 -9 18 -17 21 -8 3 -11 0 -7 -7z"/>
<path d="M8934 505 c-7 -18 3 -35 21 -35 15 0 28 27 19 41 -8 14 -34 11 -40
-6z"/>
<path d="M9213 504 c-8 -21 13 -42 28 -27 13 13 5 43 -11 43 -6 0 -13 -7 -17
-16z"/>
<path d="M9524 509 c-10 -17 23 -46 37 -32 7 7 9 19 6 27 -7 18 -33 21 -43 5z
m28 -6 c-6 -2 -9 -10 -6 -15 4 -7 2 -8 -4 -4 -18 11 -14 26 6 25 10 0 12 -3 4
-6z"/>
<path d="M602 203 c4 -22 43 -25 43 -3 0 8 -11 16 -23 18 -19 3 -23 0 -20 -15z"/>
</g>
</svg>
